<svg xmlns="http://www.w3.org/2000/svg" fill="none" viewBox="0 0 311 58">
  <g clip-path="url(#a)">
    <path fill="#231815" d="M178.445.827h-69.468a3.007 3.007 0 0 0-3.006 3.006V9.94a3.007 3.007 0 0 0 3.006 3.006h16.388l-2.333 3.987 6.815-3.987h27.729l7.1 4.275-2.621-4.275h16.39a3.007 3.007 0 0 0 3.006-3.006V3.833a3.007 3.007 0 0 0-3.006-3.006Z"/>
    <path fill="#fff" d="M113.756 5.177h.057l1.159 1.703.742-2.16 1.168.472-.196.425-.293.634-.299.638-.18.392-.161.347-.207.43c-.078.166-.152.317-.221.455l-.233.455-.066.001-1.27-1.773-.363.53-.34.471-.309.451-.312.457h-.058c-.076-.194-.156-.389-.237-.582-.08-.195-.144-.343-.189-.447l-.483-1.124-.393-.923-.136-.332-.128-.312-.111-.277 1.228-.448.259.817.136.456c.025.088.06.198.106.324l.098.311.13.416c.236-.393.45-.748.642-1.061.122-.202.276-.447.46-.746ZM117.37 4.713l.236-.012.306-.01.654-.035.226-.013h.529l.524-.032.024.954-.399.007h-.154l-.203.007h-.469v.782l.444-.033a6.803 6.803 0 0 0 .59-.024l.012.924-1.046-.02v.684l.332.004c.142.004.248.005.313.005l.141-.006.156-.006.196-.006.156-.004.035.99-2.603-.058.012-2.06-.012-2.038ZM123.433 4.594h.059l1.381 2.272 1.343-2.181h.062l1.711 3.785-1.169.517-.195-.505-.208-.535-.185-.494-.2-.542-.283.42-.363.548a14.65 14.65 0 0 1-.188.288l-.15.218a202.036 202.036 0 0 0-.254.37h-.064l-.246-.392-.411-.633-.288-.473-.195-.322-.157.523-.143.495-.166.553-.15.481-.105-.038-.143-.052-.161-.064-.133-.052-.264-.092-.327-.128.379-.972.426-1.082.374-.916.413-.997ZM129.899 7.35l.978-.058-.484-.968-.104.208-.104.212-.127.26-.159.345Zm-1.842 1.033.506-.844.143-.243.136-.224.204-.339.195-.326.236-.404.206-.338.144-.246.164-.266.178-.293.213-.339h.057l.23.351.356.548.697 1.065.555.854.286.437.363.547-1.141.673-.511-.892-1.745.103-.088.178-.09.188-.104.224-.093.2-1.097-.614ZM134.834 6.925l-.011.293.019.594.01.276.012.287.003.495h-1.339l.006-.611v-.414l.006-.242.007-.396.003-.313.006-.655-.006-.891-.022-.686h1.339l-.015.674-.01.678-.008.202V6.55h.024l.069-.086.097-.128.087-.114.175-.22.189-.237.183-.223.157-.202.115-.145.132-.16.172-.213.156-.195.957.845-1.216 1.25.183.197.116.12.27.29.339.36.359.38-1.019.889-.236-.318-.283-.361-.177-.237-.127-.167-.104-.144-.144-.19-.45-.617h-.024ZM138.098 4.713l.234-.012.307-.01.655-.035.225-.013h.529l.524-.032.023.954-.396.007h-.156l-.203.007h-.472v.782l.444-.033a7.013 7.013 0 0 0 .594-.024l.012.924-1.05-.02v.684l.332.004c.143.004.251.005.315.005l.144-.006.155-.006.196-.006.156-.004.034.99-2.602-.058.01-2.06-.01-2.038ZM145.625 5.177h.055l1.156 1.703.744-2.16 1.172.472-.199.425-.293.634-.299.638-.177.392-.163.347-.206.43c-.078.166-.152.317-.224.455-.07.14-.147.29-.232.455l-.063.001-1.271-1.773-.362.53-.343.471-.309.451-.312.457h-.059c-.076-.194-.153-.389-.233-.582-.083-.195-.146-.343-.192-.447l-.483-1.124-.391-.923-.138-.332-.127-.312-.108-.277 1.224-.448.259.817c.066.216.112.37.134.456.028.088.063.198.11.324l.098.311.13.416c.234-.393.448-.748.642-1.061.122-.202.275-.447.46-.746ZM151.255 5.531a.74.74 0 0 0-.252.041.935.935 0 0 0-.232.126 1.146 1.146 0 0 0-.34.425 1.153 1.153 0 0 0-.106.284 1.47 1.47 0 0 0-.036.337c0 .406.085.723.256.944.169.223.378.335.629.335h.081c.239-.025.426-.099.564-.227.139-.126.238-.282.295-.462.025-.099.047-.198.063-.288.016-.094.022-.19.022-.296 0-.394-.078-.696-.237-.914a.778.778 0 0 0-.649-.305h-.058Zm0-.896c.414 0 .74.037.978.11.238.073.446.17.624.293a1.423 1.423 0 0 1 .418.437c.112.16.198.355.262.577.05.238.078.467.078.69 0 .142-.012.273-.038.39a2.188 2.188 0 0 1-.128.394c-.108.257-.26.485-.46.688-.2.201-.444.362-.732.48a3.266 3.266 0 0 1-.482.152 2.261 2.261 0 0 1-.52.054c-.358 0-.681-.048-.977-.148a2.26 2.26 0 0 1-.759-.429 1.928 1.928 0 0 1-.481-.624 1.837 1.837 0 0 1-.167-.744l.01-.213a2.35 2.35 0 0 1 .43-1.144c.238-.32.531-.56.884-.722a2.526 2.526 0 0 1 1.06-.24ZM154.466 4.686l.056-.036.172.128.22.16.197.147.183.137.374.28.343.255.621.465.772.575v-.5l-.004-.398-.017-.582.011-.622 1.166.024-.026.363-.018.333-.018.299-.028.513-.03.5-.062 1.254-.051.922-.06.023-.668-.483-.661-.496-.814-.621-.724-.557V8.86l-1.148-.046.034-.633.025-.41v-.287l.016-.304.028-.496.053-.934.023-.53.035-.535ZM160.877 5.612v2.157c.318-.056.622-.193.906-.408.288-.216.431-.517.431-.907a.812.812 0 0 0-.109-.434.608.608 0 0 0-.335-.252 2.545 2.545 0 0 0-.812-.156h-.081Zm-1.295-.919h.237c.183 0 .491.01.924.027.176.01.323.014.452.014.192 0 .358.011.5.034.143.021.314.058.519.11.444.115.784.286 1.016.511.236.228.355.51.355.848l.004.09c0 .323-.076.61-.222.86a3 3 0 0 1-.601.715c-.417.344-.928.583-1.532.715-.077.012-.217.039-.421.073a6.823 6.823 0 0 1-.838.11c-.11.008-.233.01-.364.01h-.034l.034-1.969v-.553l-.005-.743-.024-.852ZM164.479 4.713l.236-.012.304-.01.657-.035.221-.013h.532l.524-.032.023.954-.397.007h-.155l-.2.007h-.475v.782l.444-.033a7.374 7.374 0 0 0 .594-.024l.012.924-1.05-.02v.684l.331.004c.147.004.249.005.315.005l.145-.006.156-.006.195-.006.154-.004.036.99-2.602-.058.01-2.06-.01-2.038ZM170.902 8.997l-1.407-2.09c.202-.102.36-.236.476-.397.116-.161.175-.316.175-.465a.474.474 0 0 0-.195-.387c-.129-.096-.332-.144-.612-.144l.034 3.297h-1.288v-1.46c0-.22-.003-.662-.011-1.32-.007-.656-.013-1.092-.013-1.308h.289c.149 0 .312.003.493.01.178.001.368.006.572.008.136 0 .263.005.379.014.116.011.305.04.575.087.266.048.501.127.704.24.204.11.328.256.374.436a1.1 1.1 0 0 1-.132.856c-.062.096-.14.19-.233.283-.095.09-.211.184-.343.276l.144.161.132.136.122.123.132.126.126.131.132.133.428.46-1.053.794ZM172.464 5.39c.166-.17.416-.33.749-.483.333-.15.741-.25 1.225-.296l.162.968c-.136 0-.247.003-.322.008a5.25 5.25 0 0 0-.238.027 1.275 1.275 0 0 0-.362.098c-.104.054-.16.13-.16.23 0 .054.031.1.09.14.056.045.161.106.317.184l.117.057.1.059.086.045c.428.232.642.516.642.852l-.006.088-.006.085c-.03.186-.108.359-.232.518a1.93 1.93 0 0 1-.509.44 3.126 3.126 0 0 1-.743.329 3.66 3.66 0 0 1-.434.11c-.154.029-.315.053-.476.069l-.162-.976c.308 0 .579-.038.818-.108.234-.072.352-.172.352-.302 0-.056-.031-.108-.09-.154-.061-.047-.113-.088-.162-.118a1.835 1.835 0 0 0-.156-.093l-.33-.195c-.405-.254-.609-.541-.609-.861 0-.13.035-.265.109-.404.052-.11.13-.216.23-.317ZM175.461 7.948h.967v.863h-.967v-.863Zm-.13-3.272 1.393.057c0 .092-.012.204-.035.332-.022.127-.038.224-.053.291l-.028.184-.035.23-.069.42-.109.749-.054.473c-.168 0-.294.004-.378.01-.086.01-.215.025-.386.047l-.116-1.049-.077-.98c-.009-.11-.024-.248-.035-.419a5.157 5.157 0 0 1-.018-.345Z"/>
    <path fill="#F9BE00" d="M176.141 43.376a3.165 3.165 0 0 1-3.166 3.163 3.164 3.164 0 0 1-3.167-3.163v-13.93a3.165 3.165 0 0 1 3.167-3.163 3.166 3.166 0 0 1 3.166 3.163v13.93Zm6.742-14.094c-.308-1.351-.892-2.502-1.759-3.451-.675-.743-1.616-1.347-2.813-1.816.05-.197.08-.4.08-.613a2.534 2.534 0 0 0-2.532-2.532 2.534 2.534 0 0 0-2.502 2.148 39.656 39.656 0 0 0-.772-.052 2.528 2.528 0 0 0-2.489-2.096c-1.227 0-2.249.869-2.485 2.026h-9.591v1.267c2.1 0 3.801 1.7 3.801 3.797v24.058a3.8 3.8 0 0 1-3.801 3.798v1.266h11.792v-7.167h3.141c2.567 0 4.64-.353 6.224-1.063 1.591-.705 2.679-1.722 3.274-3.042.594-1.326.893-3.427.893-6.318v-3.937c0-2.832-.156-4.927-.461-6.273Z"/>
    <path fill="#fff" d="M171.784 23.402a1.69 1.69 0 1 1-3.378-.003 1.69 1.69 0 0 1 3.378.003Z"/>
    <path fill="#231815" d="M170.939 23.402a.842.842 0 0 1-.843.841.842.842 0 1 1 0-1.685c.465 0 .843.377.843.844Z"/>
    <path fill="#fff" d="M177.545 23.402c0 .93-.756 1.688-1.687 1.688a1.69 1.69 0 0 1 0-3.378 1.69 1.69 0 0 1 1.687 1.69Z"/>
    <path fill="#231815" d="M176.703 23.402a.844.844 0 1 1-1.687-.005.844.844 0 0 1 1.687.005ZM127.126 35.022v.637c0-2.85-.158-4.948-.463-6.31-.311-1.357-.897-2.513-1.767-3.466-.678-.744-1.624-1.352-2.828-1.824a2.545 2.545 0 0 0-2.468-3.163 2.542 2.542 0 0 0-2.513 2.16 40.801 40.801 0 0 0-.775-.052 2.543 2.543 0 0 0-4.998-.07h-9.643v1.271a3.818 3.818 0 0 1 3.819 3.818v6.999c0 2.113-1.71 3.82-3.819 3.82v1.272h11.849V29.52a3.183 3.183 0 1 1 6.364 0v10.594h7.238c.002-.164.004-.328.004-.496v.495h3.818v-1.271a3.816 3.816 0 0 1-3.818-3.82Z"/>
    <path fill="#fff" d="M115.505 23.333a1.696 1.696 0 1 1-3.393-.001 1.696 1.696 0 0 1 3.393 0Z"/>
    <path fill="#231815" d="M114.656 23.333a.849.849 0 1 1-1.698-.002.849.849 0 0 1 1.698.002Z"/>
    <path fill="#fff" d="M121.298 23.333a1.697 1.697 0 1 1-3.394-.002 1.697 1.697 0 0 1 3.394.002Z"/>
    <path fill="#231815" d="M120.45 23.333a.85.85 0 1 1-1.698-.004.85.85 0 0 1 1.698.004ZM139.563 31.372c-.023-.898-.242-1.572-.655-2.025-.413-.452-1.056-.681-1.928-.681-.812 0-1.483.216-2.001.642-.524.433-.82 1.12-.88 2.064h5.464Zm4.254 2.483h-9.706c.062 1.062.456 1.875 1.181 2.438.725.563 1.792.842 3.205.842.895 0 1.76-.164 2.599-.493.839-.327 1.5-.681 1.987-1.056h.47v3.421c-.952.383-1.852.666-2.7.84-.842.17-1.777.26-2.804.26-2.645 0-4.673-.6-6.081-1.805-1.409-1.202-2.113-2.913-2.113-5.136 0-2.201.668-3.947 2.004-5.23 1.337-1.286 3.166-1.929 5.493-1.929 2.151 0 3.764.545 4.848 1.64 1.079 1.092 1.617 2.666 1.617 4.715v1.493ZM154.679 36.286c.272-.338.479-.744.615-1.224.136-.474.207-1.132.207-1.977 0-.779-.072-1.43-.214-1.96-.14-.527-.336-.947-.584-1.261a2.084 2.084 0 0 0-.904-.688 3.21 3.21 0 0 0-1.138-.198c-.407 0-.768.054-1.082.164-.317.11-.621.331-.91.66-.259.31-.464.728-.615 1.266-.152.534-.228 1.208-.228 2.017 0 .725.063 1.353.197 1.884.131.53.328.96.587 1.28.251.31.549.53.896.673.351.143.745.214 1.193.214.382 0 .748-.064 1.094-.194.346-.13.645-.35.886-.656Zm5.254-3.222c0 2.18-.638 3.901-1.91 5.158-1.273 1.255-3.061 1.884-5.362 1.884-2.302 0-4.09-.629-5.363-1.884-1.275-1.257-1.908-2.978-1.908-5.158 0-2.202.641-3.924 1.919-5.179 1.284-1.253 3.068-1.879 5.352-1.879 2.321 0 4.11.628 5.374 1.891 1.267 1.263 1.898 2.984 1.898 5.167Z"/>
    <path fill="#F9BE00" d="M189.555 40.1h-4.256V20.892h4.256V40.1ZM200.934 31.372c-.022-.898-.245-1.572-.656-2.025-.413-.452-1.057-.681-1.932-.681-.812 0-1.478.216-2.002.642-.522.433-.815 1.12-.878 2.064h5.468Zm4.256 2.483h-9.712c.063 1.062.456 1.875 1.183 2.438.725.563 1.792.842 3.204.842.893 0 1.761-.164 2.596-.493.844-.327 1.505-.681 1.993-1.056h.47v3.421a16.09 16.09 0 0 1-2.702.84c-.844.17-1.781.26-2.805.26-2.645 0-4.673-.6-6.081-1.805-1.41-1.202-2.114-2.913-2.114-5.136 0-2.201.67-3.947 2.003-5.23 1.339-1.286 3.172-1.929 5.5-1.929 2.144 0 3.759.545 4.843 1.64 1.078 1.092 1.622 2.666 1.622 4.715v1.493Z"/>
    <path fill="#474747" d="M224.854 31.733c0-1.477-.474-2.736-1.422-3.779-.948-1.043-2.112-1.564-3.494-1.564-1.382 0-2.546.521-3.494 1.564-.948 1.043-1.422 2.302-1.422 3.779 0 1.477.474 2.733 1.422 3.766.948 1.035 2.112 1.554 3.494 1.554 1.382 0 2.546-.519 3.494-1.553.948-1.034 1.422-2.29 1.422-3.767Zm1.255 6.088c-1.673 1.635-3.735 2.453-6.183 2.453-2.449 0-4.51-.819-6.184-2.453-1.673-1.635-2.51-3.668-2.51-6.1 0-2.432.837-4.465 2.51-6.1 1.674-1.635 3.735-2.452 6.184-2.452 2.448 0 4.51.817 6.183 2.452s2.511 3.668 2.511 6.1c0 2.432-.838 4.465-2.511 6.1ZM233.951 33.746c0 1.035.288 1.882.864 2.536.576.656 1.276.983 2.097.983s1.54-.327 2.156-.983c.615-.654.924-1.497.924-2.524 0-1.025-.3-1.886-.9-2.582-.601-.695-1.32-1.042-2.157-1.042-.836 0-1.544.343-2.12 1.03-.576.688-.864 1.548-.864 2.582Zm3.908-6.597c1.485 0 2.808.62 3.968 1.859 1.161 1.24 1.742 2.8 1.742 4.68s-.581 3.45-1.742 4.714c-1.16 1.264-2.519 1.895-4.074 1.895-1.557 0-2.808-.624-3.754-1.87v6.277h-3.555V27.362h3.555v1.422c1.089-1.091 2.376-1.635 3.86-1.635ZM253.377 30.702c-.489-.41-1.085-.616-1.789-.616-.703 0-1.347.214-1.931.64a2.444 2.444 0 0 0-1.018 1.73h5.592c-.08-.76-.366-1.343-.854-1.754Zm3.412 7.558c-1.438 1.36-3.124 2.038-5.058 2.038-1.935 0-3.535-.596-4.798-1.788-1.264-1.194-1.896-2.792-1.896-4.798 0-2.006.644-3.602 1.931-4.787 1.288-1.184 2.808-1.776 4.561-1.776 1.754 0 3.242.53 4.466 1.588 1.224 1.057 1.836 2.51 1.836 4.359v1.894h-9.287c.109.696.475 1.264 1.089 1.707a3.485 3.485 0 0 0 2.086.663c1.246 0 2.274-.418 3.08-1.255l1.99 2.155ZM262.996 33v7.108h-3.553V27.362h3.553v1.42c1.073-1.088 2.283-1.634 3.625-1.634s2.467.474 3.375 1.422c.908.948 1.363 2.212 1.363 3.792v7.746h-3.555v-7.202c0-1.96-.719-2.938-2.155-2.938-.71 0-1.332.256-1.86.77-.529.513-.793 1.268-.793 2.262ZM281.734 28.475l-2.084 4.81h4.146l-2.062-4.81Zm5 11.632-1.541-3.577h-6.941l-1.54 3.577h-3.934l7.156-16.558h3.578l7.154 16.558h-3.932ZM300.806 31.543c.443-.497.663-1.224.663-2.18 0-.955-.287-1.635-.865-2.037-.576-.403-1.472-.604-2.688-.604h-2.11v5.568h2.488c1.232 0 2.07-.25 2.512-.747Zm2.712-6.515c1.162.987 1.742 2.503 1.742 4.55 0 2.045-.596 3.541-1.79 4.49-1.192.946-3.012 1.42-5.46 1.42h-2.204v4.62h-3.696v-16.56h5.854c2.542 0 4.394.494 5.554 1.48ZM307.203 23.548h3.694v16.56h-3.694v-16.56Z"/>
    <path fill="#AFAEAE" d="M6.55 31.656c.377-.397.565-.98.565-1.75 0-.767-.238-1.311-.716-1.63-.477-.319-1.225-.477-2.242-.477H2.249v4.453h2.178c1.039 0 1.746-.199 2.123-.596Zm1.328-4.59c.775.649 1.161 1.645 1.161 2.992 0 1.346-.396 2.333-1.185 2.958-.79.626-2 .938-3.633.938H2.249v3.26H.37V26.099H4.19c1.685 0 2.916.324 3.689.969ZM12.482 34.98c.503.514 1.142.772 1.916.772s1.414-.258 1.918-.773c.5-.513.754-1.18.754-1.995 0-.817-.253-1.482-.755-1.997-.504-.513-1.144-.77-1.917-.77-.774 0-1.413.257-1.916.77-.504.515-.755 1.18-.755 1.997 0 .816.251 1.482.755 1.995Zm5.098 1.098c-.848.841-1.91 1.263-3.182 1.263s-2.332-.422-3.18-1.263c-.85-.843-1.273-1.875-1.273-3.095 0-1.218.424-2.249 1.273-3.093.848-.843 1.908-1.264 3.18-1.264 1.272 0 2.334.421 3.181 1.264.847.844 1.273 1.875 1.273 3.093 0 1.22-.426 2.253-1.273 3.095ZM24.323 37.214h-2.037l-2.926-8.46h1.845l2.1 6.393 2.099-6.393h1.844l2.1 6.393 2.099-6.393h1.845l-2.926 8.46H28.33l-2.004-5.79-2.002 5.79ZM35.71 32.364h4.85c0-.71-.223-1.258-.668-1.639-.445-.381-.995-.572-1.647-.572a2.82 2.82 0 0 0-1.757.596c-.519.397-.779.936-.779 1.615Zm6.632 1.398h-6.633c.042.616.324 1.112.843 1.488.52.378 1.114.566 1.782.566 1.06 0 1.866-.335 2.417-1.003l1.017 1.113c-.91.943-2.099 1.415-3.561 1.415-1.188 0-2.199-.393-3.03-1.184-.833-.79-1.249-1.85-1.249-3.181 0-1.33.423-2.388 1.272-3.172a4.268 4.268 0 0 1 2.999-1.178c1.15 0 2.128.347 2.933 1.042.806.694 1.21 1.65 1.21 2.87v1.224ZM48.337 30.423c-.881 0-1.544.287-1.99.859-.444.573-.666 1.34-.666 2.306v3.626H43.9v-8.46h1.781v1.7c.286-.529.676-.963 1.168-1.303a2.826 2.826 0 0 1 1.568-.526l.015 1.798h-.095ZM51.056 32.364h4.85c0-.71-.222-1.258-.667-1.639-.446-.381-.995-.572-1.647-.572a2.82 2.82 0 0 0-1.757.596c-.519.397-.779.936-.779 1.615Zm6.632 1.398h-6.632c.041.616.324 1.112.843 1.488.52.378 1.113.566 1.781.566 1.06 0 1.867-.335 2.417-1.003l1.018 1.113c-.91.943-2.099 1.415-3.562 1.415-1.188 0-2.198-.393-3.03-1.184-.832-.79-1.248-1.85-1.248-3.181 0-1.33.422-2.388 1.272-3.172a4.268 4.268 0 0 1 2.998-1.178c1.15 0 2.128.347 2.934 1.042.805.694 1.21 1.65 1.21 2.87v1.224ZM60.486 33.023c0 .812.26 1.472.78 1.98.52.51 1.13.764 1.83.764.698 0 1.293-.257 1.78-.77.487-.516.731-1.175.731-1.982 0-.805-.243-1.478-.731-2.02-.487-.54-1.087-.81-1.797-.81s-1.32.27-1.829.81c-.508.542-.764 1.218-.764 2.028Zm-.588 3.11c-.795-.806-1.193-1.866-1.193-3.18 0-1.316.41-2.366 1.225-3.15.816-.784 1.788-1.177 2.917-1.177 1.13 0 2.04.477 2.729 1.43v-4.642h1.782v11.8h-1.782v-1.272c-.658.933-1.616 1.399-2.88 1.399-1.07 0-2.002-.402-2.798-1.208ZM75.245 33c0 .806.244 1.466.732 1.98a2.36 2.36 0 0 0 1.78.771c.701 0 1.31-.254 1.83-.764.52-.509.78-1.168.78-1.98 0-.81-.255-1.484-.764-2.02-.51-.534-1.12-.802-1.828-.802-.711 0-1.311.268-1.798.802-.488.536-.732 1.207-.732 2.012Zm2.783-4.374c1.134 0 2.105.392 2.91 1.177.806.784 1.21 1.828 1.21 3.132 0 1.306-.401 2.366-1.201 3.182-.802.817-1.734 1.224-2.8 1.224-1.065 0-2.022-.466-2.87-1.399v1.272h-1.781V25.413h1.781v4.82c.7-1.071 1.616-1.607 2.75-1.607ZM84.851 40.586c-.775 0-1.473-.28-2.099-.842l.811-1.448c.37.35.755.525 1.152.525.399 0 .723-.143.97-.43.25-.286.375-.6.375-.938 0-.148-1.141-3.048-3.42-8.7h1.91l2.528 6.235 2.529-6.235h1.908l-4.103 10.052a3.065 3.065 0 0 1-1.049 1.304 2.586 2.586 0 0 1-1.512.477Z"/>
  </g>
  <defs>
    <clipPath id="a">
      <path fill="#fff" d="M0 0h311v58H0z"/>
    </clipPath>
  </defs>
</svg>