<svg xmlns="http://www.w3.org/2000/svg" fill="none" viewBox="0 0 329 104">
  <g clip-path="url(#a)">
    <path fill="#717071" d="M120.686 7.713H11.484a4.728 4.728 0 0 0-4.728 4.727v9.597a4.728 4.728 0 0 0 4.728 4.727h25.762l-3.668 6.268 10.71-6.268H87.88l11.162 6.719-4.121-6.719h25.765a4.728 4.728 0 0 0 4.726-4.727V12.44a4.728 4.728 0 0 0-4.726-4.727Z"/>
    <path fill="#fff" d="M18.995 14.552h.091l1.82 2.676 1.168-3.395 1.836.743-.306.668-.462.996-.47 1.005-.285.615-.252.544-.324.677c-.123.261-.238.499-.349.716l-.365.713-.104.004-1.997-2.79-.57.832-.534.744-.487.708-.49.72h-.091a27.603 27.603 0 0 0-.374-.916 23.393 23.393 0 0 0-.297-.704l-.759-1.764-.617-1.452-.216-.523-.2-.49-.172-.435 1.93-.706.404 1.286c.105.338.174.58.216.717.04.139.092.31.166.508l.153.488.207.655c.37-.62.705-1.175 1.006-1.668.194-.316.436-.703.724-1.172ZM24.678 13.823l.372-.02.479-.015 1.03-.057.354-.019H27.745l.824-.05.037 1.5-.626.01h-.244l-.318.01h-.738v1.231l.698-.052a10.919 10.919 0 0 0 .928-.038l.018 1.45-1.644-.029v1.075c.117 0 .293.005.52.006.226.007.392.008.494.008l.223-.009.244-.01.308-.009.247-.006.053 1.556-4.09-.092.018-3.235-.019-3.205ZM34.209 13.635h.092l2.17 3.57 2.111-3.429h.1l2.688 5.954-1.838.813-.306-.796-.328-.841-.29-.778-.314-.85-.444.66-.57.86c-.084.134-.184.286-.297.454-.146.212-.226.327-.235.343-.066.09-.127.183-.187.272-.057.092-.13.193-.214.306h-.098l-.388-.613-.647-.996-.452-.742-.306-.506-.247.822-.224.777-.263.87-.235.758-.166-.063-.221-.082-.255-.1-.21-.082-.416-.145-.514-.2.596-1.528.67-1.7.587-1.44.65-1.568ZM44.373 17.966l1.537-.09-.763-1.521-.164.327-.161.332-.2.41-.248.542Zm-2.898 1.625.797-1.327.226-.382.213-.352.321-.532.307-.514.37-.634.324-.531.228-.388.255-.419.28-.458.336-.534h.088l.363.552.56.862 1.096 1.674.87 1.342.45.688.57.86-1.791 1.058-.805-1.404-2.742.162-.139.281-.141.296-.164.35-.147.315-1.725-.965ZM52.13 17.3l-.016.46.03.932.014.436.02.45.006.78h-2.106l.01-.962v-.651l.01-.38.01-.623.004-.491.01-1.03-.01-1.4-.034-1.078h2.106l-.026 1.059-.015 1.066-.013.318v.523h.038l.108-.134.154-.201.136-.18.273-.344.299-.371.288-.353.246-.316.18-.229.207-.252.273-.334.244-.307 1.504 1.33-1.912 1.965.288.306.182.19.428.454.53.57.564.595-1.6 1.398-.372-.498-.444-.57-.28-.372-.198-.264-.163-.224-.23-.299-.705-.969h-.038ZM57.261 13.823l.368-.02.483-.015 1.03-.057.354-.019H60.328l.824-.05.034 1.5-.62.01h-.248l-.317.01h-.741v1.231l.697-.052a10.717 10.717 0 0 0 .932-.039l.017 1.451-1.646-.029v1.075c.124 0 .293.005.521.006.224.007.393.008.492.008l.228-.009.243-.01.308-.009.246-.006.054 1.556-4.09-.092.015-3.235-.016-3.205ZM69.094 14.552h.086l1.818 2.676 1.17-3.395 1.84.743-.31.668-.461.996-.47 1.005-.28.615-.255.544-.325.677c-.12.261-.24.499-.353.716-.108.217-.23.453-.362.713l-.102.004-1.996-2.79-.57.832-.538.744-.487.708-.49.72h-.092a39.65 39.65 0 0 0-.67-1.62l-.758-1.764-.615-1.452-.218-.523-.198-.49-.17-.435 1.925-.706.407 1.286c.103.338.175.58.21.717.044.139.1.31.174.508l.153.488.205.655c.367-.62.703-1.175 1.008-1.668.19-.316.432-.703.724-1.172ZM77.945 15.108c-.143 0-.276.021-.397.064a1.455 1.455 0 0 0-.363.199c-.232.175-.41.397-.536.668-.07.134-.128.281-.167.445-.038.16-.057.339-.057.53 0 .64.135 1.136.403 1.485.266.35.596.527.99.527h.127c.375-.04.67-.155.887-.357.218-.198.372-.444.462-.727.04-.157.074-.31.099-.454.027-.145.036-.299.036-.464 0-.619-.124-1.095-.372-1.435-.25-.322-.59-.48-1.023-.48h-.09Zm0-1.41c.65 0 1.163.06 1.536.174.375.114.701.268.98.462a2.191 2.191 0 0 1 .659.688c.177.25.312.554.41.904.082.374.126.736.126 1.085 0 .224-.02.43-.062.612a3.42 3.42 0 0 1-.201.621c-.17.404-.41.763-.723 1.08-.313.316-.698.57-1.15.755a4.84 4.84 0 0 1-.76.238c-.246.06-.52.087-.815.087a4.75 4.75 0 0 1-1.536-.233 3.523 3.523 0 0 1-1.195-.674 3.044 3.044 0 0 1-.756-.98 2.923 2.923 0 0 1-.19-.567 2.528 2.528 0 0 1-.072-.603l.017-.336c.08-.699.307-1.299.676-1.8a3.544 3.544 0 0 1 1.39-1.13 3.981 3.981 0 0 1 1.666-.382ZM82.992 13.78l.087-.057.271.2.346.253.309.23.287.215.59.44.539.402.976.73 1.212.905v-.787l-.004-.624-.027-.916.017-.977 1.834.037-.043.572-.03.522-.026.47-.046.806-.044.788-.1 1.97-.08 1.451-.093.035-1.05-.76-1.04-.778-1.277-.978-1.14-.876V20.341l-1.806-.07.055-.997.037-.642v-.454l.027-.478.044-.78.085-1.466.035-.833.055-.841ZM93.07 15.235v3.392c.5-.09.978-.306 1.426-.643.452-.339.676-.812.676-1.424 0-.273-.059-.501-.173-.685a.941.941 0 0 0-.526-.395c-.47-.161-.896-.245-1.277-.245h-.127Zm-2.035-1.444h.372c.288 0 .772.016 1.453.042.276.014.505.022.71.022.303 0 .56.017.786.052.224.034.492.093.816.173.697.181 1.23.45 1.596.805.372.358.557.8.557 1.332l.008.143c0 .508-.12.959-.349 1.352a4.78 4.78 0 0 1-.945 1.124c-.656.54-1.459.915-2.407 1.123-.121.02-.343.061-.664.116-.319.056-.573.093-.764.118a8.508 8.508 0 0 1-1.124.07h-.055l.055-3.096v-.87l-.01-1.168-.035-1.338ZM98.731 13.823l.371-.02.477-.015 1.034-.057.349-.019H101.798l.823-.05.036 1.5-.624.01h-.244l-.314.01h-.746v1.231l.698-.052c.183 0 .32-.002.428-.006.099-.004.27-.012.504-.032l.018 1.45-1.648-.029v1.075c.121 0 .293.005.518.006.232.007.394.008.496.008l.228-.009.246-.01.305-.009.243-.006.057 1.556-4.09-.092.015-3.235-.016-3.205ZM108.828 20.556l-2.211-3.287a2.02 2.02 0 0 0 .748-.622c.182-.254.275-.496.275-.732a.749.749 0 0 0-.305-.607c-.203-.15-.523-.226-.963-.226l.052 5.18h-2.023v-2.294c0-.347-.006-1.04-.018-2.072-.011-1.034-.02-1.718-.02-2.058h.453c.236 0 .491.003.776.014.279.002.579.012.9.013.213 0 .412.008.595.023.182.018.48.064.902.137.42.075.788.197 1.11.377.32.173.514.402.588.684.034.146.054.303.054.471 0 .29-.09.58-.262.877-.1.15-.222.298-.368.443-.15.143-.331.29-.538.434l.226.254.209.213.189.194.208.198.199.206.207.21.673.72-1.656 1.25ZM111.283 14.886c.263-.266.655-.518 1.179-.76.524-.235 1.167-.391 1.927-.464l.253 1.52a5.47 5.47 0 0 0-.88.055 2.237 2.237 0 0 0-.305.06 2.712 2.712 0 0 0-.264.095c-.164.084-.251.206-.251.363 0 .084.048.157.14.22.087.07.253.165.5.288l.183.09.157.091.135.072c.672.364 1.01.81 1.01 1.34l-.009.139-.009.133c-.048.29-.17.564-.366.812-.194.25-.464.484-.8.695-.34.212-.729.382-1.169.514a5.265 5.265 0 0 1-.681.174 8.942 8.942 0 0 1-.75.11l-.252-1.535c.484 0 .908-.058 1.283-.171.369-.112.555-.27.555-.474 0-.086-.048-.168-.142-.242-.096-.073-.178-.139-.256-.185a2.243 2.243 0 0 0-.244-.146l-.518-.306c-.638-.4-.956-.852-.956-1.357 0-.2.054-.414.17-.631.083-.175.204-.342.36-.5ZM115.997 18.908h1.518v1.354h-1.518v-1.354Zm-.206-5.144 2.191.09c0 .145-.02.32-.055.522-.034.199-.061.352-.082.457l-.047.29-.053.36-.11.66-.174 1.178-.083.743c-.261 0-.461.013-.595.018-.133.014-.336.037-.604.071l-.182-1.648-.123-1.538c-.015-.175-.037-.392-.053-.66a6.981 6.981 0 0 1-.03-.543Z"/>
    <path fill="#C8C9CA" d="M117.065 74.601a4.977 4.977 0 0 1-4.977 4.97 4.975 4.975 0 0 1-4.979-4.97v-21.9a4.978 4.978 0 0 1 9.956 0v21.9Zm10.598-22.159c-.483-2.12-1.404-3.93-2.764-5.424-1.062-1.168-2.542-2.117-4.424-2.852.08-.31.126-.63.126-.966a3.986 3.986 0 0 0-3.981-3.982 3.984 3.984 0 0 0-3.931 3.378c-.397-.028-.797-.058-1.213-.082a3.977 3.977 0 0 0-3.913-3.296 3.99 3.99 0 0 0-3.908 3.186H88.58v1.993c3.3 0 5.975 2.673 5.975 5.968v37.819a5.973 5.973 0 0 1-5.975 5.97v1.991h18.535V84.88h4.941c4.033 0 7.291-.558 9.784-1.672 2.499-1.11 4.208-2.708 5.143-4.784.936-2.082 1.406-5.386 1.406-9.928v-6.19c0-4.453-.246-7.745-.726-9.864Z"/>
    <path fill="#fff" d="M110.215 43.2a2.656 2.656 0 0 1-5.31 0 2.655 2.655 0 1 1 5.31 0Z"/>
    <path fill="#231815" d="M108.887 43.2c0 .731-.595 1.323-1.325 1.323a1.324 1.324 0 1 1 0-2.648c.73 0 1.325.592 1.325 1.325Z"/>
    <path fill="#fff" d="M119.271 43.2a2.655 2.655 0 0 1-2.652 2.655 2.655 2.655 0 0 1 0-5.31 2.655 2.655 0 0 1 2.652 2.655Z"/>
    <path fill="#231815" d="M117.948 43.2c0 .731-.598 1.323-1.328 1.323a1.325 1.325 0 0 1-1.328-1.323 1.328 1.328 0 0 1 2.656 0Z"/>
    <path fill="#717071" d="M40.012 61.468v1.002c0-4.48-.245-7.78-.725-9.92-.491-2.133-1.412-3.95-2.779-5.45-1.065-1.17-2.553-2.126-4.444-2.866a4.08 4.08 0 0 0 .121-.968 4.004 4.004 0 0 0-4.002-4.005 3.995 3.995 0 0 0-3.95 3.396c-.396-.03-.802-.059-1.22-.081a3.998 3.998 0 0 0-7.858-.112H0v1.998a6.003 6.003 0 0 1 6.001 6.004v11.002A6.001 6.001 0 0 1 0 67.472v1.999h18.627V52.818a4.999 4.999 0 0 1 5.004-5.002 4.999 4.999 0 0 1 4.998 5.002v16.654h11.378c.004-.258.005-.515.005-.78v.78h6.003v-2a6.001 6.001 0 0 1-6.003-6.004Z"/>
    <path fill="#fff" d="M21.745 43.092a2.667 2.667 0 0 1-2.668 2.666 2.667 2.667 0 1 1 2.668-2.665Z"/>
    <path fill="#231815" d="M20.41 43.092a1.334 1.334 0 0 1-2.665 0 1.334 1.334 0 1 1 2.666 0Z"/>
    <path fill="#fff" d="M30.853 43.092a2.668 2.668 0 0 1-2.67 2.666 2.667 2.667 0 1 1 0-5.335 2.669 2.669 0 0 1 2.67 2.67Z"/>
    <path fill="#231815" d="M29.518 43.092c0 .733-.6 1.334-1.335 1.334a1.336 1.336 0 0 1 0-2.671c.736 0 1.335.596 1.335 1.337Z"/>
    <path fill="#717071" d="M59.563 55.73c-.037-1.414-.377-2.471-1.029-3.184-.648-.711-1.661-1.07-3.03-1.07-1.277 0-2.33.339-3.147 1.011-.823.677-1.287 1.756-1.383 3.243h8.59Zm6.688 3.904H50.993c.098 1.668.716 2.946 1.857 3.83 1.14.887 2.816 1.326 5.04 1.326 1.404 0 2.765-.258 4.083-.776 1.32-.515 2.36-1.072 3.124-1.66h.741v5.378c-1.497.602-2.913 1.046-4.245 1.319-1.326.27-2.795.41-4.41.41-4.156 0-7.346-.943-9.557-2.838-2.216-1.888-3.323-4.58-3.323-8.073 0-3.462 1.05-6.204 3.15-8.223 2.102-2.021 4.977-3.032 8.636-3.032 3.381 0 5.917.857 7.621 2.579 1.696 1.718 2.541 4.189 2.541 7.412v2.348ZM83.327 63.454c.43-.53.752-1.17.966-1.924.214-.745.325-1.777.325-3.107 0-1.224-.115-2.25-.335-3.08-.22-.829-.526-1.49-.918-1.984a3.282 3.282 0 0 0-1.422-1.082 5.065 5.065 0 0 0-1.789-.31c-.64 0-1.208.084-1.7.26-.5.17-.976.518-1.432 1.036-.405.486-.73 1.143-.965 1.987-.24.843-.359 1.9-.359 3.173 0 1.14.099 2.127.31 2.963.205.832.517 1.507.922 2.01.395.487.864.835 1.41 1.058.549.225 1.171.336 1.874.336.6 0 1.176-.1 1.721-.303a3.199 3.199 0 0 0 1.392-1.033Zm8.26-5.065c0 3.428-1.002 6.133-3.004 8.108-2 1.974-4.813 2.964-8.429 2.964-3.617 0-6.43-.99-8.43-2.964-2.003-1.975-3-4.68-3-8.108 0-3.462 1.01-6.17 3.017-8.14 2.018-1.97 4.821-2.955 8.413-2.955 3.65 0 6.461.988 8.448 2.973 1.992 1.986 2.984 4.691 2.984 8.122Z"/>
    <path fill="#C8C9CA" d="M138.149 69.45h-6.692V39.252h6.692V69.45ZM156.039 55.73c-.037-1.414-.385-2.471-1.03-3.184-.651-.711-1.664-1.07-3.038-1.07-1.276 0-2.325.339-3.149 1.011-.819.677-1.28 1.756-1.379 3.243h8.596Zm6.69 3.904h-15.267c.1 1.668.717 2.946 1.86 3.83 1.14.887 2.817 1.326 5.036 1.326 1.405 0 2.769-.258 4.081-.776 1.326-.515 2.366-1.072 3.134-1.66h.737v5.378c-1.501.602-2.917 1.046-4.245 1.319-1.33.27-2.802.41-4.411.41-4.159 0-7.348-.943-9.56-2.838-2.215-1.888-3.323-4.58-3.323-8.073 0-3.462 1.054-6.204 3.151-8.223 2.104-2.021 4.983-3.032 8.644-3.032 3.371 0 5.908.857 7.612 2.579 1.696 1.718 2.551 4.189 2.551 7.412v2.348Z"/>
    <path fill="#717071" d="M193.793 56.321c0-2.324-.746-4.305-2.236-5.944-1.491-1.64-3.324-2.46-5.499-2.46s-4.007.82-5.497 2.46c-1.491 1.639-2.238 3.62-2.238 5.944s.747 4.3 2.238 5.925c1.49 1.63 3.322 2.443 5.497 2.443s4.008-.813 5.499-2.442c1.49-1.626 2.236-3.602 2.236-5.926Zm1.976 9.58c-2.635 2.57-5.878 3.858-9.73 3.858-3.852 0-7.094-1.287-9.728-3.858-2.634-2.573-3.952-5.772-3.952-9.598 0-3.827 1.318-7.026 3.952-9.598 2.634-2.572 5.876-3.858 9.728-3.858 3.852 0 7.095 1.286 9.73 3.858 2.633 2.572 3.95 5.77 3.95 9.598 0 3.826-1.317 7.025-3.95 9.598ZM208.105 59.49c0 1.627.453 2.957 1.36 3.987.908 1.033 2.008 1.548 3.299 1.548 1.292 0 2.424-.515 3.393-1.548.968-1.03 1.453-2.352 1.453-3.968s-.472-2.97-1.417-4.063c-.944-1.095-2.075-1.64-3.391-1.64-1.318 0-2.429.539-3.337 1.62-.907 1.081-1.36 2.436-1.36 4.064Zm6.151-10.381c2.334 0 4.417.976 6.242 2.926 1.827 1.95 2.74 4.404 2.74 7.362 0 2.957-.913 5.429-2.74 7.417-1.825 1.988-3.962 2.983-6.41 2.983s-4.418-.983-5.908-2.946v9.878h-5.591V49.446h5.591v2.236c1.714-1.716 3.74-2.573 6.076-2.573ZM238.669 54.7c-.77-.646-1.709-.97-2.814-.97-1.106 0-2.119.336-3.038 1.007-.92.67-1.453 1.578-1.602 2.721h8.796c-.124-1.192-.572-2.112-1.342-2.759Zm5.367 11.89c-2.26 2.137-4.913 3.207-7.957 3.207-3.044 0-5.56-.939-7.548-2.815-1.988-1.876-2.983-4.393-2.983-7.55 0-3.154 1.013-5.663 3.039-7.527 2.025-1.863 4.416-2.796 7.174-2.796 2.759 0 5.102.833 7.027 2.497 1.925 1.665 2.888 3.95 2.888 6.859v2.981h-14.611c.174 1.095.746 1.988 1.715 2.684a5.482 5.482 0 0 0 3.28 1.044c1.963 0 3.579-.659 4.845-1.976l3.131 3.392ZM253.803 58.316v11.182h-5.59V49.445h5.59v2.237c1.69-1.716 3.591-2.573 5.703-2.573s3.883.746 5.312 2.236c1.428 1.492 2.143 3.48 2.143 5.964v12.19h-5.591V58.167c0-3.082-1.132-4.623-3.392-4.623-1.119 0-2.095.404-2.925 1.21-.834.808-1.25 1.994-1.25 3.56ZM283.286 51.196l-3.28 7.567h6.523l-3.243-7.567Zm7.864 18.302-2.421-5.63h-10.921l-2.424 5.63h-6.187l11.256-26.055h5.629l11.256 26.055h-6.188ZM313.291 56.023c.696-.783 1.044-1.926 1.044-3.429 0-1.504-.454-2.572-1.361-3.206-.907-.633-2.317-.95-4.229-.95h-3.318v8.76h3.914c1.938 0 3.254-.392 3.95-1.175Zm4.268-10.25c1.827 1.553 2.74 3.939 2.74 7.156 0 3.219-.938 5.572-2.814 7.064-1.876 1.49-4.74 2.236-8.591 2.236h-3.467v7.268h-5.816V43.443h9.207c4.001 0 6.915.778 8.741 2.33ZM323.355 43.443h5.815v26.054h-5.815V43.443Z"/>
  </g>
  <defs>
    <clipPath id="a">
      <path fill="#fff" d="M0 0h329v104H0z"/>
    </clipPath>
  </defs>
</svg>