<svg width="664" height="215" viewBox="0 0 664 215" fill="none" xmlns="http://www.w3.org/2000/svg">
<g clip-path="url(#clip0_2_1673)">
<path d="M243.757 8.10587H23.1944C17.9237 8.10587 13.649 12.3805 13.649 17.6525V37.0365C13.649 42.3072 17.9237 46.5832 23.1944 46.5832H75.229L67.821 59.2405L89.4544 46.5832H177.496L200.04 60.1539L191.718 46.5832H243.757C249.026 46.5832 253.3 42.3072 253.3 37.0365V17.6525C253.3 12.3805 249.026 8.10587 243.757 8.10587Z" fill="#231815"/>
<path d="M38.3681 21.9191H38.5495L42.2281 27.3231L44.5855 20.4671L48.2935 21.9657L47.6735 23.3164L46.7415 25.3284L45.7921 27.3564L45.2215 28.6004L44.7081 29.6991L44.0548 31.0671C43.8055 31.5937 43.5721 32.0711 43.3495 32.5124C43.1228 32.9497 42.8815 33.4297 42.6108 33.9524L42.4028 33.9604L38.3681 28.3271L37.2175 30.0071L36.1375 31.5071L35.1535 32.9391L34.1668 34.3924H33.9815C33.7401 33.7711 33.4868 33.1551 33.2268 32.5417C32.9748 31.9217 32.7721 31.4511 32.6255 31.1204L31.0935 27.5551L29.8455 24.6244L29.4135 23.5684L29.0095 22.5804L28.6588 21.7004L32.5561 20.2751L33.3761 22.8724C33.5841 23.5564 33.7268 24.0417 33.8095 24.3204C33.8881 24.6004 33.9975 24.9444 34.1455 25.3471L34.4561 26.3324L34.8735 27.6551C35.6215 26.4071 36.2988 25.2817 36.9081 24.2871C37.2948 23.6471 37.7855 22.8657 38.3681 21.9191Z" fill="white"/>
<path d="M49.8446 20.4454L50.5939 20.4067L51.5646 20.3747L53.6433 20.2614L54.3579 20.2227H55.1593H56.0393L57.7019 20.1187L57.7779 23.1494L56.5113 23.1721H56.0206L55.3793 23.1921H53.8873V25.6774L55.2966 25.5734C55.6646 25.5734 55.9433 25.5681 56.1486 25.5601C56.3593 25.5534 56.7006 25.5347 57.1713 25.4947L57.2086 28.4281L53.8873 28.3667V30.5361C54.1246 30.5361 54.4806 30.5454 54.9406 30.5494C55.3939 30.5614 55.7299 30.5654 55.9353 30.5654L56.3846 30.5454L56.8779 30.5307L57.5033 30.5094L57.9993 30.4974L58.1086 33.6387L49.8446 33.4547L49.8819 26.9187L49.8446 20.4454Z" fill="white"/>
<path d="M69.0937 20.067H69.2817L73.6644 27.279L77.9284 20.3523H78.1284L83.5591 32.375L79.8471 34.0176L79.2271 32.4123L78.5657 30.7123L77.9791 29.1416L77.3444 27.423L76.4471 28.7576L75.2964 30.4976C75.1271 30.7656 74.9244 31.0723 74.7004 31.4123C74.4017 31.839 74.2417 32.071 74.2217 32.1043C74.0911 32.2883 73.9697 32.471 73.8471 32.6536C73.7297 32.839 73.5817 33.0456 73.4137 33.2736H73.2137L72.4311 32.0336L71.1244 30.0216L70.2111 28.5216L69.5911 27.5016L69.0937 29.1603L68.6404 30.731L68.1097 32.487L67.6391 34.0176L67.3031 33.8936L66.8524 33.7256L66.3391 33.5256L65.9124 33.359L65.0777 33.067L64.0391 32.663L65.2404 29.5763L66.5977 26.143L67.7817 23.2336L69.0937 20.067Z" fill="white"/>
<path d="M89.6235 28.8154L92.7262 28.6314L91.1875 25.5607L90.8582 26.2207L90.5288 26.8927L90.1288 27.7207L89.6235 28.8154ZM83.7715 32.0967L85.3808 29.4154L85.8342 28.6447L86.2675 27.9341L86.9142 26.8594L87.5342 25.8221L88.2835 24.5394L88.9368 23.4674L89.3968 22.6834L89.9142 21.8407L90.4768 20.9114L91.1568 19.8354H91.3368L92.0662 20.9501L93.1982 22.6914L95.4102 26.0727L97.1688 28.7807L98.0808 30.1701L99.2315 31.9074L95.6102 34.0447L93.9888 31.2114L88.4462 31.5367L88.1688 32.1047L87.8822 32.7021L87.5542 33.4101L87.2555 34.0447L83.7715 32.0967Z" fill="white"/>
<path d="M105.291 27.468L105.257 28.4L105.317 30.2813L105.348 31.1613L105.387 32.0707L105.399 33.6467H101.145L101.163 31.7027V31.1373V30.388L101.185 29.6173L101.204 28.3613L101.215 27.372L101.236 25.2893L101.215 22.4613L101.145 20.284H105.399L105.348 22.424L105.317 24.576L105.291 25.2173V25.8213V26.276H105.368L105.588 26.0053L105.897 25.5987L106.171 25.2373L106.725 24.54L107.327 23.7893L107.908 23.0773L108.407 22.44L108.768 21.9787L109.188 21.4693L109.737 20.792L110.231 20.1747L113.269 22.8573L109.409 26.828L109.989 27.4493L110.359 27.8293L111.219 28.7493L112.291 29.8987L113.431 31.0987L110.197 33.9227L109.448 32.9173L108.549 31.768L107.985 31.016L107.584 30.4853L107.256 30.0293L106.796 29.428L105.368 27.468H105.291Z" fill="white"/>
<path d="M115.654 20.4454L116.398 20.4067L117.374 20.3747L119.451 20.2614L120.167 20.2227H120.968H121.848L123.511 20.1187L123.582 23.1494L122.327 23.1721H121.83L121.188 23.1921H119.688V25.6774L121.099 25.5734C121.46 25.5734 121.752 25.5681 121.958 25.5601C122.166 25.5534 122.51 25.5347 122.98 25.4947L123.018 28.4281L119.688 28.3667V30.5361C119.94 30.5361 120.282 30.5454 120.743 30.5494C121.195 30.5614 121.539 30.5654 121.739 30.5654L122.198 30.5454L122.69 30.5307L123.311 30.5094L123.808 30.4974L123.918 33.6387L115.654 33.4547L115.687 26.9187L115.654 20.4454Z" fill="white"/>
<path d="M139.554 21.9191H139.726L143.399 27.3231L145.759 20.4671L149.479 21.9657L148.851 23.3164L147.92 25.3284L146.97 27.3564L146.406 28.6004L145.89 29.6991L145.236 31.0671C144.991 31.5937 144.75 32.0711 144.524 32.5124C144.304 32.9497 144.06 33.4297 143.788 33.9524L143.587 33.9604L139.554 28.3271L138.403 30.0071L137.315 31.5071L136.332 32.9391L135.343 34.3924H135.155C134.916 33.7711 134.67 33.1551 134.412 32.5417C134.154 31.9217 133.952 31.4511 133.804 31.1204L132.271 27.5551L131.031 24.6244L130.59 23.5684L130.19 22.5804L129.847 21.7004L133.734 20.2751L134.554 22.8724C134.767 23.5564 134.911 24.0417 134.98 24.3204C135.072 24.6004 135.182 24.9444 135.33 25.3471L135.642 26.3324L136.054 27.6551C136.798 26.4071 137.476 25.2817 138.091 24.2871C138.479 23.6471 138.963 22.8657 139.554 21.9191Z" fill="white"/>
<path d="M157.429 23.0417C157.14 23.0417 156.875 23.0844 156.628 23.1724C156.397 23.2511 156.148 23.3884 155.892 23.5711C155.425 23.9257 155.071 24.3751 154.812 24.9204C154.669 25.1924 154.552 25.4897 154.475 25.8217C154.397 26.1471 154.36 26.5031 154.36 26.8924C154.36 28.1831 154.631 29.1871 155.172 29.8897C155.711 30.5977 156.375 30.9537 157.173 30.9537H157.429C158.187 30.8751 158.78 30.6417 159.221 30.2351C159.66 29.8337 159.972 29.3391 160.153 28.7631C160.235 28.4511 160.303 28.1404 160.355 27.8497C160.407 27.5551 160.424 27.2457 160.424 26.9111C160.424 25.6644 160.177 24.7017 159.675 24.0124C159.171 23.3631 158.484 23.0417 157.611 23.0417H157.429ZM157.429 20.1964C158.743 20.1964 159.779 20.3137 160.535 20.5457C161.289 20.7764 161.951 21.0871 162.512 21.4777C162.789 21.6684 163.036 21.8777 163.249 22.0977C163.457 22.3137 163.665 22.5724 163.843 22.8657C164.2 23.3737 164.471 23.9897 164.673 24.6951C164.835 25.4511 164.923 26.1804 164.923 26.8857C164.923 27.3377 164.887 27.7524 164.801 28.1217C164.724 28.4964 164.589 28.9097 164.395 29.3764C164.051 30.1911 163.567 30.9164 162.933 31.5591C162.299 32.1964 161.524 32.7084 160.611 33.0844C160.095 33.2884 159.589 33.4511 159.079 33.5671C158.581 33.6857 158.025 33.7391 157.429 33.7391C156.292 33.7391 155.265 33.5844 154.327 33.2671C153.395 32.9497 152.595 32.4951 151.916 31.9071C151.241 31.3111 150.732 30.6524 150.388 29.9257C150.221 29.5577 150.091 29.1751 150.003 28.7804C149.905 28.3844 149.859 27.9791 149.859 27.5644L149.891 26.8857C150.055 25.4724 150.511 24.2617 151.256 23.2511C152.012 22.2364 152.944 21.4777 154.063 20.9657C155.18 20.4524 156.304 20.1964 157.429 20.1964Z" fill="white"/>
<path d="M167.622 20.3582L167.801 20.2449L168.346 20.6502L169.043 21.1595L169.671 21.6222L170.251 22.0595L171.441 22.9475L172.529 23.7569L174.499 25.2329L176.951 27.0595V25.4715L176.938 24.2089L176.886 22.3609L176.919 20.3875L180.625 20.4622L180.539 21.6169L180.481 22.6729L180.423 23.6209L180.333 25.2502L180.242 26.8409L180.042 30.8195L179.879 33.7502L179.693 33.8209L177.571 32.2862L175.47 30.7142L172.889 28.7409L170.587 26.9702V27.6422V28.7289V29.9702V33.6115L166.942 33.4689L167.053 31.4582L167.13 30.1569V29.2422L167.181 28.2769L167.271 26.7035L167.439 23.7409L167.51 22.0595L167.622 20.3582Z" fill="white"/>
<path d="M187.977 23.298V30.1487C188.99 29.97 189.956 29.5314 190.857 28.8527C191.77 28.166 192.224 27.2087 192.224 25.974C192.224 25.4247 192.106 24.9634 191.874 24.5914C191.641 24.2167 191.284 23.95 190.814 23.7954C189.862 23.4674 189.004 23.298 188.233 23.298H187.977ZM183.868 20.382H184.62C185.201 20.382 186.177 20.4127 187.554 20.4674C188.11 20.494 188.577 20.5101 188.99 20.5101C189.6 20.5101 190.122 20.546 190.576 20.6167C191.028 20.6874 191.57 20.806 192.224 20.9647C193.634 21.3327 194.712 21.874 195.449 22.5927C196.198 23.3154 196.573 24.2087 196.573 25.282L196.588 25.574C196.588 26.598 196.346 27.5074 195.882 28.302C195.326 29.202 194.693 29.9594 193.976 30.5714C192.65 31.6647 191.028 32.4194 189.113 32.8394C188.868 32.8794 188.422 32.9634 187.774 33.0727C187.126 33.1847 186.617 33.2621 186.229 33.3141C185.846 33.3581 185.473 33.3954 185.117 33.422C184.762 33.4447 184.373 33.4554 183.961 33.4554H183.849L183.961 27.2034V25.4447L183.941 23.0847L183.868 20.382Z" fill="white"/>
<path d="M199.413 20.4454L200.162 20.4067L201.128 20.3747L203.216 20.2614L203.92 20.2227H204.736H205.608L207.269 20.1187L207.341 23.1494L206.08 23.1721H205.589L204.954 23.1921H203.448V25.6774L204.858 25.5734C205.225 25.5734 205.504 25.5681 205.722 25.5601C205.924 25.5534 206.266 25.5347 206.74 25.4947L206.777 28.4281L203.448 28.3667V30.5361C203.693 30.5361 204.041 30.5454 204.496 30.5494C204.962 30.5614 205.29 30.5654 205.498 30.5654L205.957 30.5454L206.454 30.5307L207.07 30.5094L207.56 30.4974L207.677 33.6387L199.413 33.4547L199.446 26.9187L199.413 20.4454Z" fill="white"/>
<path d="M219.807 34.0452L215.34 27.4092C215.979 27.0852 216.483 26.6626 216.851 26.1506C217.22 25.6386 217.407 25.1466 217.407 24.6719C217.407 24.1826 217.202 23.7706 216.787 23.4466C216.379 23.1426 215.734 22.9892 214.847 22.9892L214.95 33.4546H210.864V28.8186C210.864 28.1172 210.852 26.7186 210.827 24.6319C210.806 22.5466 210.786 21.1639 210.786 20.4786H211.704C212.178 20.4786 212.694 20.4839 213.268 20.5052C213.834 20.5106 214.44 20.5266 215.087 20.5319C215.52 20.5319 215.92 20.5492 216.29 20.5786C216.658 20.6146 217.259 20.7052 218.112 20.8532C218.959 21.0052 219.704 21.2546 220.351 21.6159C220.996 21.9652 221.39 22.4279 221.539 22.9986C221.61 23.2906 221.65 23.6079 221.65 23.9492C221.65 24.5319 221.468 25.1199 221.119 25.7199C220.919 26.0226 220.674 26.3226 220.376 26.6146C220.078 26.9052 219.708 27.2012 219.29 27.4906L219.748 28.0039L220.168 28.4372L220.551 28.8266L220.971 29.2279L221.371 29.6426L221.791 30.0666L223.15 31.5212L219.807 34.0452Z" fill="white"/>
<path d="M224.766 22.5927C225.297 22.0567 226.086 21.5473 227.145 21.0593C228.205 20.5833 229.501 20.2673 231.037 20.1193L231.549 23.1927C231.115 23.1927 230.766 23.2033 230.526 23.2207C230.279 23.238 230.029 23.2687 229.771 23.3033C229.505 23.342 229.299 23.382 229.155 23.426C229.006 23.4673 228.833 23.53 228.621 23.6153C228.29 23.786 228.115 24.0313 228.115 24.346C228.115 24.5193 228.213 24.666 228.399 24.7913C228.574 24.9327 228.91 25.1273 229.407 25.3753L229.777 25.5567L230.094 25.742L230.365 25.8873C231.723 26.622 232.409 27.5233 232.409 28.5927L232.387 28.8713L232.37 29.142C232.273 29.73 232.029 30.282 231.633 30.7833C231.238 31.29 230.695 31.7607 230.017 32.186C229.331 32.6127 228.543 32.958 227.655 33.2247C227.237 33.358 226.783 33.4807 226.278 33.574C225.789 33.6687 225.277 33.7433 224.766 33.794L224.255 30.694C225.231 30.694 226.091 30.578 226.849 30.3527C227.593 30.126 227.967 29.8087 227.967 29.394C227.967 29.2193 227.871 29.0553 227.682 28.9047C227.489 28.7567 227.322 28.626 227.166 28.5313C227.099 28.482 226.939 28.3847 226.671 28.2367L225.625 27.6167C224.339 26.8087 223.691 25.898 223.691 24.8807C223.691 24.4713 223.803 24.042 224.037 23.6007C224.203 23.25 224.449 22.914 224.766 22.5927Z" fill="white"/>
<path d="M234.285 30.7176H237.354V33.4549H234.285V30.7176ZM233.869 20.3268L238.293 20.5109C238.293 20.8016 238.253 21.1549 238.182 21.5643C238.112 21.9656 238.06 22.2748 238.016 22.4868L237.924 23.0722L237.814 23.8016L237.594 25.1336L237.245 27.5122L237.076 29.0122C236.545 29.0122 236.141 29.0268 235.873 29.0495C235.602 29.0748 235.194 29.1228 234.652 29.1935L234.285 25.8642L234.038 22.7549C234.006 22.4055 233.962 21.9629 233.929 21.4256C233.884 20.8856 233.869 20.5161 233.869 20.3268Z" fill="white"/>
<path d="M236.443 143.2C236.443 148.745 231.936 153.241 226.39 153.241C220.834 153.241 216.335 148.745 216.335 143.2V98.9707C216.335 93.4294 220.834 88.9294 226.39 88.9294C231.936 88.9294 236.443 93.4294 236.443 98.9707V143.2ZM257.847 98.4481C256.871 94.1601 255.012 90.5081 252.264 87.4947C250.119 85.1334 247.131 83.2161 243.33 81.7294C243.491 81.1027 243.583 80.4574 243.583 79.7814C243.583 75.3454 239.98 71.7401 235.544 71.7401C231.523 71.7401 228.194 74.7041 227.603 78.5614C226.802 78.5027 225.995 78.4454 225.154 78.3974C224.5 74.6187 221.21 71.7401 217.248 71.7401C213.354 71.7401 210.107 74.5027 209.359 78.1747H178.91V82.1974C185.575 82.1974 190.976 87.5947 190.976 94.2534V170.635C190.976 177.292 185.575 182.696 178.91 182.696V186.716H216.347V163.961H226.323C234.47 163.961 241.052 162.837 246.084 160.585C251.132 158.348 254.586 155.119 256.474 150.924C258.363 146.719 259.312 140.045 259.312 130.869V118.368C259.312 109.375 258.815 102.727 257.847 98.4481Z" fill="#F9BE00"/>
<path d="M222.607 79.7814C222.607 82.7374 220.207 85.1414 217.247 85.1414C214.286 85.1414 211.881 82.7374 211.881 79.7814C211.881 76.8214 214.286 74.4161 217.247 74.4161C220.207 74.4161 222.607 76.8214 222.607 79.7814Z" fill="white"/>
<path d="M219.924 79.7814C219.924 81.2561 218.727 82.4534 217.248 82.4534C215.767 82.4534 214.569 81.2561 214.569 79.7814C214.569 78.3001 215.767 77.1028 217.248 77.1028C218.727 77.1028 219.924 78.3001 219.924 79.7814Z" fill="#231815"/>
<path d="M240.899 79.7814C240.899 82.7374 238.499 85.1414 235.544 85.1414C232.583 85.1414 230.183 82.7374 230.183 79.7814C230.183 76.8214 232.583 74.4161 235.544 74.4161C238.499 74.4161 240.899 76.8214 240.899 79.7814Z" fill="white"/>
<path d="M238.227 79.7814C238.227 81.2561 237.019 82.4534 235.545 82.4534C234.064 82.4534 232.861 81.2561 232.861 79.7814C232.861 78.3001 234.064 77.1028 235.545 77.1028C237.019 77.1028 238.227 78.3001 238.227 79.7814Z" fill="#231815"/>
<path d="M80.8173 116.674V118.7C80.8173 109.652 80.3187 102.989 79.3493 98.6662C78.36 94.3569 76.4987 90.6862 73.7373 87.6582C71.584 85.2955 68.584 83.3649 64.7627 81.8676C64.916 81.2382 65.0067 80.5889 65.0067 79.9129C65.0067 75.4422 61.3867 71.8276 56.9253 71.8276C52.8813 71.8276 49.5347 74.7969 48.9467 78.6822C48.1453 78.6236 47.3267 78.5636 46.484 78.5196C45.8227 74.7156 42.5173 71.8276 38.5307 71.8276C34.6253 71.8276 31.3653 74.5996 30.612 78.2929H0V82.3316C6.696 82.3316 12.1227 87.7622 12.1227 94.4542V116.674C12.1227 123.384 6.696 128.804 0 128.804V132.841H37.6213V99.2062C37.6213 93.6222 42.1413 89.0996 47.7293 89.0996C53.304 89.0996 57.8253 93.6222 57.8253 99.2062V132.841H80.804C80.812 132.321 80.8173 131.801 80.8173 131.266V132.841H92.94V128.804C86.2427 128.804 80.8173 123.384 80.8173 116.674Z" fill="#231815"/>
<path d="M43.9209 79.5621C43.9209 82.5368 41.5076 84.9461 38.5316 84.9461C35.5569 84.9461 33.1436 82.5368 33.1436 79.5621C33.1436 76.5821 35.5569 74.1728 38.5316 74.1728C41.5076 74.1728 43.9209 76.5821 43.9209 79.5621Z" fill="white"/>
<path d="M41.2262 79.5621C41.2262 81.0434 40.0235 82.2527 38.5315 82.2527C37.0462 82.2527 35.8408 81.0434 35.8408 79.5621C35.8408 78.0661 37.0462 76.8607 38.5315 76.8607C40.0235 76.8607 41.2262 78.0661 41.2262 79.5621Z" fill="#231815"/>
<path d="M62.3161 79.5621C62.3161 82.5368 59.9001 84.9461 56.9254 84.9461C53.9468 84.9461 51.5334 82.5368 51.5334 79.5621C51.5334 76.5821 53.9468 74.1728 56.9254 74.1728C59.9001 74.1728 62.3161 76.5821 62.3161 79.5621Z" fill="white"/>
<path d="M59.6215 79.5621C59.6215 81.0434 58.4081 82.2527 56.9241 82.2527C55.4388 82.2527 54.2281 81.0434 54.2281 79.5621C54.2281 78.0661 55.4388 76.8607 56.9241 76.8607C58.4081 76.8607 59.6215 78.0661 59.6215 79.5621Z" fill="#231815"/>
<path d="M120.305 105.088C120.233 102.233 119.541 100.096 118.227 98.6572C116.915 97.2226 114.873 96.4959 112.106 96.4959C109.526 96.4959 107.399 97.1812 105.749 98.5372C104.089 99.9066 103.149 102.085 102.957 105.088H120.305ZM133.811 112.972H102.993C103.195 116.343 104.442 118.921 106.746 120.709C109.047 122.5 112.434 123.385 116.923 123.385C119.761 123.385 122.51 122.865 125.173 121.817C127.835 120.779 129.937 119.655 131.482 118.465H132.977V129.328C129.951 130.543 127.094 131.441 124.402 131.995C121.726 132.539 118.759 132.82 115.499 132.82C107.102 132.82 100.661 130.915 96.1927 127.088C91.7167 123.276 89.4821 117.837 89.4821 110.781C89.4821 103.791 91.6021 98.2532 95.8447 94.1732C100.09 90.0932 105.898 88.0506 113.287 88.0506C120.115 88.0506 125.238 89.7826 128.678 93.2586C132.105 96.7292 133.811 101.721 133.811 108.229V112.972Z" fill="#231815"/>
<path d="M168.301 120.69C169.167 119.616 169.82 118.326 170.252 116.804C170.684 115.297 170.907 113.209 170.907 110.528C170.907 108.056 170.679 105.982 170.233 104.305C169.785 102.633 169.167 101.298 168.377 100.3C167.581 99.2715 166.625 98.5475 165.507 98.1142C164.389 97.6942 163.187 97.4862 161.891 97.4862C160.6 97.4862 159.455 97.6569 158.457 98.0102C157.449 98.3555 156.487 99.0569 155.568 100.105C154.747 101.086 154.095 102.414 153.616 104.12C153.132 105.82 152.892 107.956 152.892 110.528C152.892 112.826 153.092 114.824 153.52 116.509C153.933 118.194 154.56 119.554 155.38 120.57C156.175 121.553 157.127 122.258 158.228 122.708C159.337 123.162 160.592 123.385 162.013 123.385C163.224 123.385 164.389 123.182 165.488 122.774C166.587 122.358 167.536 121.661 168.301 120.69ZM184.981 110.457C184.981 117.38 182.959 122.845 178.917 126.836C174.875 130.821 169.197 132.821 161.891 132.821C154.587 132.821 148.908 130.821 144.867 126.836C140.82 122.845 138.808 117.38 138.808 110.457C138.808 103.468 140.845 97.9982 144.899 94.0182C148.975 90.0369 154.639 88.0515 161.891 88.0515C169.263 88.0515 174.941 90.0449 178.956 94.0529C182.977 98.0622 184.981 103.529 184.981 110.457Z" fill="#231815"/>
<path d="M279.028 132.796H265.513V71.8109H279.028V132.796Z" fill="#F9BE00"/>
<path d="M315.16 105.088C315.088 102.233 314.382 100.096 313.077 98.6572C311.764 97.2226 309.72 96.4959 306.942 96.4959C304.366 96.4959 302.246 97.1812 300.584 98.5372C298.928 99.9066 297.998 102.085 297.798 105.088H315.16ZM328.672 112.972H297.837C298.037 116.343 299.285 118.921 301.593 120.709C303.894 122.5 307.284 123.385 311.764 123.385C314.602 123.385 317.357 122.865 320.008 121.817C322.685 120.779 324.786 119.655 326.338 118.465H327.824V129.328C324.792 130.543 321.934 131.441 319.25 131.995C316.568 132.539 313.593 132.82 310.342 132.82C301.942 132.82 295.502 130.915 291.033 127.088C286.561 123.276 284.322 117.837 284.322 110.781C284.322 103.791 286.449 98.2532 290.685 94.1732C294.934 90.0932 300.753 88.0506 308.145 88.0506C314.952 88.0506 320.08 89.7826 323.518 93.2586C326.945 96.7292 328.672 101.721 328.672 108.229V112.972Z" fill="#F9BE00"/>
<path d="M391.108 106.229C391.108 101.54 389.604 97.5427 386.596 94.2334C383.587 90.9241 379.887 89.2694 375.502 89.2694C371.112 89.2694 367.414 90.9241 364.406 94.2334C361.398 97.5427 359.892 101.54 359.892 106.229C359.892 110.919 361.398 114.907 364.406 118.188C367.414 121.475 371.112 123.116 375.502 123.116C379.887 123.116 383.587 121.475 386.596 118.188C389.604 114.907 391.108 110.919 391.108 106.229ZM395.095 125.561C389.779 130.749 383.235 133.347 375.463 133.347C367.69 133.347 361.144 130.749 355.83 125.561C350.515 120.369 347.856 113.913 347.856 106.193C347.856 98.4707 350.515 92.0147 355.83 86.8241C361.144 81.6347 367.69 79.0387 375.463 79.0387C383.235 79.0387 389.779 81.6347 395.095 86.8241C400.41 92.0147 403.068 98.4707 403.068 106.193C403.068 113.913 400.41 120.369 395.095 125.561Z" fill="#474747"/>
<path d="M419.991 112.624C419.991 115.908 420.905 118.592 422.736 120.671C424.567 122.753 426.787 123.795 429.393 123.795C432 123.795 434.283 122.753 436.239 120.671C438.193 118.592 439.172 115.923 439.172 112.66C439.172 109.401 438.219 106.671 436.313 104.463C434.408 102.256 432.125 101.153 429.468 101.153C426.809 101.153 424.567 102.241 422.736 104.424C420.905 106.605 419.991 109.34 419.991 112.624ZM432.403 91.6759C437.115 91.6759 441.316 93.6439 445.001 97.5825C448.687 101.515 450.531 106.468 450.531 112.436C450.531 118.404 448.687 123.393 445.001 127.404C441.316 131.417 437.003 133.423 432.064 133.423C427.124 133.423 423.149 131.44 420.143 127.48V147.411H408.86V92.3545H420.143V96.8665C423.601 93.4065 427.688 91.6759 432.403 91.6759Z" fill="#474747"/>
<path d="M481.669 102.957C480.114 101.655 478.221 101.002 475.99 101.002C473.757 101.002 471.714 101.678 469.86 103.033C468.004 104.387 466.925 106.218 466.625 108.523H484.377C484.126 106.117 483.222 104.261 481.669 102.957ZM492.5 126.953C487.937 131.266 482.584 133.422 476.441 133.422C470.298 133.422 465.221 131.529 461.21 127.743C457.197 123.957 455.192 118.878 455.192 112.509C455.192 106.142 457.234 101.078 461.322 97.3179C465.409 93.5566 470.234 91.6753 475.802 91.6753C481.368 91.6753 486.094 93.3553 489.98 96.7153C493.866 100.075 495.809 104.687 495.809 110.554V116.573H466.324C466.674 118.779 467.829 120.583 469.785 121.989C471.74 123.393 473.945 124.094 476.404 124.094C480.365 124.094 483.625 122.765 486.181 120.106L492.5 126.953Z" fill="#474747"/>
<path d="M512.209 110.254V132.819H500.926V92.3538H512.209V96.8658C515.618 93.4058 519.454 91.6752 523.717 91.6752C527.978 91.6752 531.552 93.1818 534.436 96.1872C537.32 99.1965 538.761 103.208 538.761 108.223V132.819H527.478V109.954C527.478 103.736 525.196 100.627 520.633 100.627C518.376 100.627 516.408 101.442 514.729 103.068C513.048 104.7 512.209 107.094 512.209 110.254Z" fill="#474747"/>
<path d="M571.706 95.8876L565.087 111.157H578.25L571.706 95.8876ZM587.576 132.82L582.688 121.461H560.648L555.759 132.82H543.274L565.988 80.241H577.347L600.063 132.82H587.576Z" fill="#474747"/>
<path d="M632.255 105.627C633.659 104.048 634.362 101.743 634.362 98.7092C634.362 95.6746 633.446 93.5186 631.615 92.2386C629.786 90.9599 626.939 90.3212 623.079 90.3212H616.385V107.996H624.282C628.194 107.996 630.851 107.208 632.255 105.627ZM640.869 84.9452C644.554 88.0772 646.397 92.8919 646.397 99.3852C646.397 105.879 644.505 110.629 640.718 113.639C636.93 116.648 631.151 118.152 623.381 118.152H616.385V132.82H604.65V80.2412H623.229C631.303 80.2412 637.183 81.8119 640.869 84.9452Z" fill="#474747"/>
<path d="M652.565 80.2414H664.3V132.819H652.565V80.2414Z" fill="#474747"/>
</g>
<defs>
<clipPath id="clip0_2_1673">
<rect width="664" height="215" fill="white"/>
</clipPath>
</defs>
</svg>
