<svg xmlns="http://www.w3.org/2000/svg" fill="none" viewBox="0 0 312 58">
  <g clip-path="url(#a)">
    <path fill="#717071" d="M178.921.827h-69.468a3.008 3.008 0 0 0-3.007 3.006V9.94a3.008 3.008 0 0 0 3.007 3.006h16.388l-2.334 3.987 6.815-3.987h27.729l7.1 4.275-2.621-4.275h16.391a3.006 3.006 0 0 0 3.005-3.006V3.833a3.006 3.006 0 0 0-3.005-3.006Z"/>
    <path fill="#fff" d="M114.231 5.177h.058l1.158 1.703.743-2.16 1.167.472-.195.425-.293.634-.299.638-.18.392-.163.347-.205.43c-.079.166-.152.317-.221.455-.072.14-.148.29-.234.455l-.065.001-1.271-1.773-.362.53-.34.471-.31.451-.312.457h-.057c-.076-.194-.156-.389-.237-.582a18.28 18.28 0 0 0-.19-.447l-.484-1.124-.392-.923-.136-.332-.128-.312-.11-.277 1.228-.448.258.817c.066.216.111.37.136.456.026.088.06.198.107.324l.097.311.131.416c.236-.393.449-.748.641-1.061.123-.202.276-.447.46-.746ZM117.846 4.713l.236-.012.305-.01.655-.035.225-.013h.53l.524-.032.024.954-.399.007h-.155l-.202.007h-.47v.782l.444-.033a6.803 6.803 0 0 0 .591-.024l.012.924-1.047-.02v.684l.332.004c.143.004.248.005.314.005l.141-.006.155-.006.197-.006.156-.004.035.99-2.603-.058.012-2.06-.012-2.038ZM123.909 4.594h.058l1.382 2.272 1.342-2.181h.063l1.711 3.785-1.17.517-.194-.505-.208-.535-.186-.494-.2-.542-.282.42-.363.548a14.65 14.65 0 0 1-.339.506l-.117.173a4.001 4.001 0 0 1-.136.196h-.064l-.247-.39-.41-.634-.288-.473-.195-.322-.157.523-.143.495-.167.553-.149.481-.105-.038-.143-.052-.161-.064-.134-.052-.264-.092-.326-.128.378-.972.427-1.082.373-.916.414-.997ZM130.375 7.35l.977-.058-.484-.968-.104.208-.104.212-.127.26-.158.345Zm-1.843 1.033.507-.844.142-.243.136-.224.204-.339.195-.326.236-.404.207-.338.144-.246.164-.266.177-.293.213-.339h.058l.229.351.356.548.697 1.065.555.854.287.437.362.547-1.141.673-.511-.892-1.745.103-.088.178-.089.188-.104.224-.094.2-1.097-.614ZM135.309 6.925l-.011.293.019.594.011.276.012.287.002.495h-1.338l.005-.611v-.414l.007-.242.006-.396.003-.313.007-.655-.007-.891-.021-.686h1.338l-.014.674-.011.678-.008.202V6.55h.024l.069-.086.098-.128.086-.114.175-.22.189-.237.183-.223.157-.202.115-.145.132-.16.172-.213.156-.195.957.845-1.216 1.25.183.197.116.12.271.29.338.36.359.38-1.019.889-.236-.318-.282-.361-.178-.237-.126-.167-.104-.144-.144-.19-.451-.617h-.024ZM138.573 4.713l.235-.012.306-.01.655-.035.225-.013h.53l.524-.032.022.954-.394.007h-.158l-.202.007h-.472v.782l.444-.033a6.99 6.99 0 0 0 .593-.024l.012.924-1.049-.02v.684l.332.004c.142.004.25.005.314.005l.144-.006.155-.006.196-.006.156-.004.035.99-2.603-.058.011-2.06-.011-2.038ZM146.101 5.177h.054l1.156 1.703.744-2.16 1.172.472-.198.425-.294.634-.298.638-.178.392-.162.347-.207.43c-.077.166-.153.317-.224.455-.069.14-.147.29-.232.455l-.063.001-1.27-1.773-.363.53-.343.471-.309.451-.312.457h-.059c-.076-.194-.153-.389-.233-.582-.083-.195-.145-.343-.192-.447l-.483-1.124-.39-.923-.139-.332-.127-.312-.108-.277 1.224-.448.259.817c.067.216.112.37.135.456.028.088.062.198.109.324l.099.311.129.416c.235-.393.448-.748.643-1.061.121-.202.274-.447.46-.746ZM151.731 5.531a.732.732 0 0 0-.252.041.953.953 0 0 0-.232.126 1.127 1.127 0 0 0-.34.425 1.154 1.154 0 0 0-.107.284 1.47 1.47 0 0 0-.036.337c0 .406.086.723.256.944.17.223.379.335.631.335h.08c.239-.025.425-.099.564-.227.139-.126.237-.282.295-.462.025-.099.046-.198.062-.288.016-.094.023-.19.023-.296 0-.394-.079-.696-.237-.914a.778.778 0 0 0-.65-.305h-.057Zm0-.896c.413 0 .74.037.977.11.239.073.447.17.624.293.087.061.164.126.232.196.066.068.131.15.187.241.112.16.197.355.261.577.051.238.079.467.079.69 0 .142-.012.273-.039.39a2.112 2.112 0 0 1-.128.394c-.108.257-.26.485-.46.688-.2.201-.444.362-.732.48a3.218 3.218 0 0 1-.481.152 2.261 2.261 0 0 1-.52.054c-.359 0-.681-.048-.977-.148a2.24 2.24 0 0 1-.759-.429 1.928 1.928 0 0 1-.481-.624 1.776 1.776 0 0 1-.167-.744l.009-.213a2.34 2.34 0 0 1 .431-1.144c.237-.32.531-.56.884-.722a2.522 2.522 0 0 1 1.06-.24ZM154.941 4.686l.056-.036.172.128.22.16.197.147.183.137.375.28.342.255.622.465.772.575v-.5l-.004-.398-.018-.582.011-.622 1.167.024-.027.363-.017.333-.019.299-.028.513-.029.5-.063 1.254-.051.922-.06.023-.668-.483-.661-.496-.813-.621-.724-.557V8.86l-1.15-.046.035-.633.025-.41v-.287l.016-.304.028-.496.054-.934.022-.53.035-.535ZM161.352 5.612v2.157c.319-.056.623-.193.907-.408.288-.216.431-.517.431-.907a.812.812 0 0 0-.11-.434.602.602 0 0 0-.334-.252 2.546 2.546 0 0 0-.814-.156h-.08Zm-1.294-.919h.237c.183 0 .491.01.924.027.176.01.323.014.452.014.192 0 .357.011.5.034.143.021.313.058.519.11.444.115.784.286 1.016.511.236.228.354.51.354.848l.004.09c0 .323-.076.61-.222.86a2.997 2.997 0 0 1-.6.715c-.418.344-.928.583-1.532.715-.078.012-.218.039-.422.073a6.93 6.93 0 0 1-.837.11c-.111.008-.233.01-.364.01h-.035l.035-1.969v-.553l-.005-.743-.024-.852ZM164.954 4.713l.236-.012.304-.01.657-.035.222-.013h.532l.524-.032.022.954-.397.007h-.155l-.2.007h-.474v.782l.444-.033a7.277 7.277 0 0 0 .593-.024l.012.924-1.049-.02v.684l.33.004c.147.004.25.005.315.005l.145-.006.156-.006.195-.006.155-.004.036.99-2.603-.058.011-2.06-.011-2.038ZM171.377 8.997l-1.406-2.09a1.29 1.29 0 0 0 .476-.397c.116-.161.174-.316.174-.465a.473.473 0 0 0-.194-.387c-.13-.096-.332-.144-.612-.144l.033 3.297h-1.288v-1.46c0-.22-.003-.662-.011-1.32-.006-.656-.013-1.092-.013-1.308h.289c.15 0 .312.003.494.01.177.001.368.006.572.008.136 0 .262.005.378.014.116.011.306.04.575.087.267.048.501.127.704.24.204.11.328.256.375.436a1.108 1.108 0 0 1-.132.856c-.063.096-.14.19-.234.283-.094.09-.21.184-.342.276l.144.161.132.136.121.123.132.126.127.131.132.133.428.46-1.054.794ZM172.939 5.39c.167-.17.416-.33.749-.483.334-.15.742-.25 1.226-.296l.161.968a4.89 4.89 0 0 0-.321.008 5.136 5.136 0 0 0-.239.027 1.232 1.232 0 0 0-.361.098c-.104.054-.16.13-.16.23 0 .054.03.1.089.14.056.045.161.106.317.184l.118.057.1.059.085.045c.428.232.643.516.643.852l-.007.088-.005.085a1.136 1.136 0 0 1-.232.518 1.935 1.935 0 0 1-.51.44 3.136 3.136 0 0 1-.742.329c-.134.041-.275.08-.435.11a5.38 5.38 0 0 1-.476.069l-.161-.976c.308 0 .578-.038.817-.108.235-.072.352-.172.352-.302 0-.056-.031-.108-.089-.154-.062-.047-.114-.088-.163-.118a1.676 1.676 0 0 0-.156-.093l-.329-.195c-.406-.254-.61-.541-.61-.861 0-.13.036-.265.11-.404.052-.11.129-.216.229-.317ZM175.937 7.948h.967v.863h-.967v-.863Zm-.13-3.272 1.393.057c0 .092-.013.204-.035.332-.022.127-.038.224-.053.291l-.028.184-.035.23-.069.42-.111.749-.053.473c-.167 0-.295.004-.379.01-.085.01-.213.025-.384.047l-.116-1.049-.077-.98a11.38 11.38 0 0 1-.053-.764Z"/>
    <path fill="#C8C9CA" d="M176.617 43.376a3.166 3.166 0 0 1-3.167 3.163 3.164 3.164 0 0 1-3.166-3.163v-13.93a3.166 3.166 0 0 1 6.333 0v13.93Zm6.741-14.094c-.308-1.351-.892-2.502-1.758-3.451-.675-.743-1.616-1.347-2.814-1.816.051-.197.08-.4.08-.613a2.533 2.533 0 0 0-2.532-2.532 2.533 2.533 0 0 0-2.501 2.148 40.194 40.194 0 0 0-.772-.052 2.528 2.528 0 0 0-2.489-2.096c-1.227 0-2.25.869-2.486 2.026h-9.59v1.267c2.1 0 3.801 1.7 3.801 3.797v24.058a3.8 3.8 0 0 1-3.801 3.798v1.266h11.792v-7.167h3.141c2.567 0 4.64-.353 6.225-1.063 1.59-.705 2.678-1.722 3.272-3.042.595-1.326.894-3.427.894-6.318v-3.937c0-2.832-.156-4.927-.462-6.273Z"/>
    <path fill="#fff" d="M172.259 23.402a1.69 1.69 0 1 1-3.378-.003 1.69 1.69 0 0 1 3.378.003Z"/>
    <path fill="#231815" d="M171.414 23.402a.841.841 0 0 1-.843.841.842.842 0 1 1 .843-.841Z"/>
    <path fill="#fff" d="M178.02 23.402c0 .93-.756 1.688-1.686 1.688a1.69 1.69 0 0 1 0-3.378c.93 0 1.686.758 1.686 1.69Z"/>
    <path fill="#231815" d="M177.179 23.402c0 .465-.38.841-.844.841a.843.843 0 1 1 0-1.685c.464 0 .844.377.844.844Z"/>
    <path fill="#717071" d="M127.601 35.022v.637c0-2.85-.157-4.948-.463-6.31-.31-1.357-.897-2.513-1.766-3.466-.679-.744-1.624-1.352-2.827-1.824a2.545 2.545 0 1 0-4.983-1.003 41.248 41.248 0 0 0-.774-.052 2.544 2.544 0 0 0-4.999-.07h-9.643v1.271c2.11 0 3.819 1.71 3.819 3.818v6.999a3.817 3.817 0 0 1-3.819 3.82v1.272h11.85V29.52a3.183 3.183 0 1 1 6.364 0v10.594h7.237c.003-.164.004-.328.004-.496v.495h3.819v-1.271a3.816 3.816 0 0 1-3.819-3.82Z"/>
    <path fill="#fff" d="M115.98 23.333a1.696 1.696 0 1 1-3.397 0 1.696 1.696 0 0 1 3.397 0Z"/>
    <path fill="#231815" d="M115.131 23.333a.848.848 0 1 1-1.696 0 .848.848 0 0 1 1.696 0Z"/>
    <path fill="#fff" d="M121.774 23.333a1.698 1.698 0 1 1-3.395-.004 1.698 1.698 0 0 1 3.395.004Z"/>
    <path fill="#231815" d="M120.925 23.333a.85.85 0 1 1-.849-.85.85.85 0 0 1 .849.85Z"/>
    <path fill="#717071" d="M140.038 31.372c-.023-.898-.241-1.572-.655-2.025-.412-.452-1.056-.681-1.928-.681-.812 0-1.482.216-2.001.642-.524.433-.819 1.12-.88 2.064h5.464Zm4.255 2.483h-9.707c.063 1.062.456 1.875 1.181 2.438.726.563 1.792.842 3.206.842a7.04 7.04 0 0 0 2.598-.493c.839-.327 1.5-.681 1.987-1.056h.471v3.421c-.952.383-1.852.666-2.7.84-.843.17-1.778.26-2.804.26-2.646 0-4.674-.6-6.082-1.805-1.409-1.202-2.113-2.913-2.113-5.136 0-2.201.668-3.947 2.004-5.23 1.337-1.286 3.167-1.929 5.493-1.929 2.151 0 3.764.545 4.848 1.64 1.079 1.092 1.618 2.666 1.618 4.715v1.493ZM155.155 36.286c.272-.338.479-.744.615-1.224.136-.474.206-1.132.206-1.977 0-.779-.072-1.43-.213-1.96-.14-.527-.336-.947-.584-1.261a2.09 2.09 0 0 0-.904-.688 3.215 3.215 0 0 0-1.139-.198c-.406 0-.768.054-1.081.164-.317.11-.621.331-.911.66-.258.31-.464.728-.614 1.266-.152.534-.228 1.208-.228 2.017 0 .725.062 1.353.197 1.884.131.53.328.96.587 1.28.25.31.549.53.896.673.35.143.745.214 1.193.214.381 0 .748-.064 1.093-.194.347-.13.646-.35.887-.656Zm5.253-3.222c0 2.18-.637 3.901-1.909 5.158-1.273 1.255-3.061 1.884-5.363 1.884-2.301 0-4.089-.629-5.362-1.884-1.275-1.257-1.908-2.978-1.908-5.158 0-2.202.641-3.924 1.918-5.179 1.284-1.253 3.068-1.879 5.352-1.879 2.322 0 4.111.628 5.375 1.891 1.267 1.263 1.897 2.984 1.897 5.167Z"/>
    <path fill="#C8C9CA" d="M190.029 40.1h-4.256V20.892h4.256V40.1ZM201.41 31.372c-.023-.898-.246-1.572-.656-2.025-.414-.452-1.058-.681-1.932-.681-.812 0-1.479.216-2.003.642-.521.433-.815 1.12-.877 2.064h5.468Zm4.256 2.483h-9.712c.062 1.062.456 1.875 1.182 2.438.726.563 1.792.842 3.204.842.894 0 1.762-.164 2.596-.493.844-.327 1.506-.681 1.995-1.056h.468v3.421c-.956.383-1.856.666-2.701.84-.844.17-1.782.26-2.806.26-2.645 0-4.673-.6-6.081-1.805-1.409-1.202-2.113-2.913-2.113-5.136 0-2.201.669-3.947 2.004-5.23 1.337-1.286 3.17-1.929 5.498-1.929 2.144 0 3.759.545 4.843 1.64 1.079 1.092 1.623 2.666 1.623 4.715v1.493Z"/>
    <path fill="#717071" d="M225.33 31.733c0-1.477-.475-2.736-1.423-3.779-.948-1.043-2.112-1.564-3.493-1.564-1.383 0-2.547.521-3.495 1.564-.948 1.043-1.421 2.302-1.421 3.779 0 1.477.473 2.733 1.421 3.766.948 1.035 2.112 1.554 3.495 1.554 1.381 0 2.545-.519 3.493-1.553.948-1.034 1.423-2.29 1.423-3.767Zm1.255 6.088c-1.674 1.635-3.735 2.453-6.183 2.453-2.449 0-4.511-.819-6.184-2.453-1.673-1.635-2.511-3.668-2.511-6.1 0-2.432.838-4.465 2.511-6.1 1.673-1.635 3.735-2.452 6.184-2.452 2.448 0 4.509.817 6.183 2.452 1.673 1.635 2.51 3.668 2.51 6.1 0 2.432-.837 4.465-2.51 6.1ZM234.426 33.746c0 1.035.288 1.882.864 2.536.576.656 1.276.983 2.098.983.821 0 1.54-.327 2.156-.983.614-.654.924-1.497.924-2.524 0-1.025-.3-1.886-.9-2.582-.602-.695-1.32-1.042-2.158-1.042-.836 0-1.544.343-2.12 1.03-.576.688-.864 1.548-.864 2.582Zm3.908-6.597c1.486 0 2.808.62 3.968 1.859 1.162 1.24 1.743 2.8 1.743 4.68s-.581 3.45-1.743 4.714c-1.16 1.264-2.518 1.895-4.073 1.895-1.557 0-2.808-.624-3.755-1.87v6.277h-3.554V27.362h3.554v1.422c1.09-1.091 2.376-1.635 3.86-1.635ZM253.853 30.702c-.489-.41-1.085-.616-1.789-.616-.703 0-1.347.214-1.931.64a2.446 2.446 0 0 0-1.019 1.73h5.592c-.08-.76-.365-1.343-.853-1.754Zm3.411 7.558c-1.438 1.36-3.123 2.038-5.058 2.038-1.934 0-3.534-.596-4.797-1.788-1.264-1.194-1.896-2.792-1.896-4.798 0-2.006.644-3.602 1.931-4.787 1.288-1.184 2.808-1.776 4.561-1.776 1.753 0 3.241.53 4.465 1.588 1.224 1.057 1.836 2.51 1.836 4.359v1.894h-9.286c.109.696.474 1.264 1.089 1.707a3.484 3.484 0 0 0 2.085.663c1.247 0 2.275-.418 3.08-1.255l1.99 2.155ZM263.471 33v7.108h-3.553V27.362h3.553v1.42c1.074-1.088 2.283-1.634 3.626-1.634 1.341 0 2.468.474 3.374 1.422.908.948 1.363 2.212 1.363 3.792v7.746h-3.555v-7.202c0-1.96-.718-2.938-2.154-2.938-.711 0-1.332.256-1.86.77-.53.513-.794 1.268-.794 2.262ZM282.21 28.475l-2.084 4.81h4.145l-2.061-4.81Zm5 11.632-1.541-3.577h-6.942l-1.54 3.577h-3.933l7.156-16.558h3.577l7.155 16.558h-3.932ZM301.282 31.543c.443-.497.663-1.224.663-2.18 0-.955-.287-1.635-.866-2.037-.576-.403-1.472-.604-2.688-.604h-2.109v5.568h2.488c1.232 0 2.069-.25 2.512-.747Zm2.712-6.515c1.161.987 1.741 2.503 1.741 4.55 0 2.045-.596 3.541-1.789 4.49-1.192.946-3.012 1.42-5.46 1.42h-2.204v4.62h-3.696v-16.56h5.853c2.543 0 4.395.494 5.555 1.48ZM307.679 23.548h3.694v16.56h-3.694v-16.56ZM7.025 31.656c.378-.397.566-.98.566-1.75 0-.767-.239-1.311-.716-1.63-.478-.319-1.226-.477-2.243-.477H2.724v4.453h2.179c1.038 0 1.745-.199 2.122-.596Zm1.328-4.59c.775.649 1.162 1.645 1.162 2.992 0 1.346-.396 2.333-1.186 2.958-.79.626-2 .938-3.633.938H2.724v3.26H.847V26.099h3.817c1.685 0 2.916.324 3.69.969ZM12.957 34.98c.503.514 1.142.772 1.916.772s1.414-.258 1.918-.773c.501-.513.755-1.18.755-1.995 0-.817-.254-1.482-.755-1.997-.504-.513-1.144-.77-1.918-.77s-1.413.257-1.915.77c-.505.515-.755 1.18-.755 1.997 0 .816.25 1.482.755 1.995Zm5.098 1.098c-.848.841-1.91 1.263-3.181 1.263-1.273 0-2.333-.422-3.18-1.263-.85-.843-1.274-1.875-1.274-3.095 0-1.218.424-2.249 1.274-3.093.847-.843 1.907-1.264 3.18-1.264 1.271 0 2.333.421 3.18 1.264.849.844 1.273 1.875 1.273 3.093 0 1.22-.424 2.253-1.272 3.095ZM24.798 37.214h-2.036l-2.927-8.46h1.846l2.1 6.393 2.098-6.393h1.844l2.1 6.393 2.1-6.393h1.844l-2.925 8.46h-2.037l-2.004-5.79-2.003 5.79ZM36.185 32.364h4.85c0-.71-.222-1.258-.667-1.639-.446-.381-.995-.572-1.647-.572a2.82 2.82 0 0 0-1.757.596c-.52.397-.78.936-.78 1.615Zm6.632 1.398h-6.632c.041.616.324 1.112.843 1.488.52.378 1.113.566 1.78.566 1.06 0 1.868-.335 2.418-1.003l1.018 1.113c-.911.943-2.1 1.415-3.562 1.415-1.188 0-2.198-.393-3.03-1.184-.832-.79-1.248-1.85-1.248-3.181 0-1.33.422-2.388 1.272-3.172a4.268 4.268 0 0 1 2.998-1.178c1.15 0 2.128.347 2.934 1.042.805.694 1.209 1.65 1.209 2.87v1.224ZM48.813 30.423c-.882 0-1.544.287-1.99.859-.445.573-.666 1.34-.666 2.306v3.626h-1.782v-8.46h1.782v1.7c.285-.529.676-.963 1.168-1.303a2.826 2.826 0 0 1 1.568-.526l.014 1.798h-.094ZM51.532 32.364h4.85c0-.71-.222-1.258-.668-1.639-.445-.381-.994-.572-1.646-.572a2.82 2.82 0 0 0-1.758.596c-.518.397-.778.936-.778 1.615Zm6.632 1.398h-6.632c.041.616.324 1.112.842 1.488.52.378 1.114.566 1.782.566 1.06 0 1.866-.335 2.417-1.003l1.017 1.113c-.91.943-2.098 1.415-3.561 1.415-1.188 0-2.199-.393-3.03-1.184-.833-.79-1.249-1.85-1.249-3.181 0-1.33.423-2.388 1.272-3.172a4.268 4.268 0 0 1 2.999-1.178c1.15 0 2.128.347 2.933 1.042.806.694 1.21 1.65 1.21 2.87v1.224ZM60.962 33.023c0 .812.26 1.472.78 1.98.52.51 1.13.764 1.83.764.698 0 1.292-.257 1.78-.77.487-.516.731-1.175.731-1.982 0-.805-.244-1.478-.732-2.02-.487-.54-1.087-.81-1.796-.81-.71 0-1.32.27-1.83.81-.507.542-.763 1.218-.763 2.028Zm-.588 3.11c-.795-.806-1.194-1.866-1.194-3.18 0-1.316.41-2.366 1.226-3.15.816-.784 1.788-1.177 2.917-1.177 1.13 0 2.04.477 2.728 1.43v-4.642h1.783v11.8H66.05v-1.272c-.657.933-1.616 1.399-2.879 1.399-1.07 0-2.002-.402-2.798-1.208ZM75.72 33c0 .806.245 1.466.733 1.98a2.36 2.36 0 0 0 1.78.771c.701 0 1.31-.254 1.83-.764.52-.509.78-1.168.78-1.98 0-.81-.256-1.484-.765-2.02-.51-.534-1.119-.802-1.828-.802-.71 0-1.31.268-1.797.802-.488.536-.732 1.207-.732 2.012Zm2.783-4.374c1.135 0 2.106.392 2.911 1.177.805.784 1.21 1.828 1.21 3.132 0 1.306-.402 2.366-1.202 3.182-.801.817-1.733 1.224-2.8 1.224-1.064 0-2.023-.466-2.87-1.399v1.272h-1.78V25.413h1.78v4.82c.7-1.071 1.617-1.607 2.751-1.607ZM85.326 40.586c-.774 0-1.473-.28-2.098-.842l.81-1.448c.371.35.755.525 1.152.525.4 0 .723-.143.971-.43.25-.286.375-.6.375-.938 0-.148-1.142-3.048-3.42-8.7h1.91l2.527 6.235 2.53-6.235h1.907l-4.102 10.052a3.065 3.065 0 0 1-1.05 1.304c-.457.319-.96.477-1.512.477Z"/>
  </g>
  <defs>
    <clipPath id="a">
      <path fill="#fff" d="M0 0h312v58H0z"/>
    </clipPath>
  </defs>
</svg>