<svg xmlns="http://www.w3.org/2000/svg" fill="none" viewBox="0 0 329 104">
  <g clip-path="url(#a)">
    <path fill="#231815" d="M120.792 7.697H11.493a4.731 4.731 0 0 0-4.73 4.73v9.606a4.732 4.732 0 0 0 4.73 4.732H37.28l-3.672 6.272 10.72-6.272h43.628l11.172 6.724-4.124-6.724h25.788c2.61 0 4.729-2.12 4.729-4.732v-9.606a4.731 4.731 0 0 0-4.729-4.73Z"/>
    <path fill="#fff" d="M19.013 14.542h.09l1.823 2.679 1.168-3.398 1.837.742-.308.669-.461.997-.47 1.005-.283.616-.255.544-.324.68c-.123.26-.239.497-.35.715-.111.218-.231.455-.365.713l-.104.005-1.998-2.791-.571.832-.535.742-.488.711-.489.72h-.092a28.634 28.634 0 0 0-.373-.917 23.331 23.331 0 0 0-.298-.704l-.76-1.767-.617-1.452-.215-.524-.2-.49-.174-.435 1.932-.707.406 1.287c.103.338.174.58.215.719.039.138.093.308.167.508l.153.488.207.655c.37-.618.706-1.175 1.008-1.669.192-.317.434-.704.724-1.173ZM24.7 13.812l.372-.02.48-.015 1.03-.056.354-.02h.833l.824-.05.039 1.5-.628.011h-.244l-.318.01h-.74v1.232l.7-.051c.182 0 .32-.003.422-.007.104-.004.273-.013.506-.032l.02 1.453-1.648-.03v1.075c.12 0 .295.005.523.006.224.007.39.008.493.008l.223-.01.244-.007.31-.01.246-.006.053 1.556-4.094-.09.018-3.24-.018-3.207ZM34.239 13.624h.093l2.172 3.573 2.112-3.432h.1l2.69 5.958-1.84.814-.306-.796-.328-.842-.29-.778-.314-.852-.446.662-.57.861c-.084.133-.184.285-.295.453-.148.212-.228.327-.237.344-.066.091-.126.182-.187.272-.057.092-.13.194-.213.307h-.1l-.388-.613-.647-.998-.453-.744-.307-.505-.246.823-.224.777-.264.87-.234.76-.167-.062-.222-.083-.255-.1-.21-.082-.415-.144-.515-.202.596-1.529.672-1.701.587-1.442.65-1.569ZM44.412 17.96l1.537-.091-.762-1.523-.163.328-.163.332-.198.41-.251.543Zm-2.9 1.625.797-1.328.224-.382.216-.353.32-.532.307-.515.372-.634.324-.532.228-.388.256-.418.279-.461.337-.533h.09l.36.553.56.863L47.28 16.6l.872 1.341.45.69.571.86-1.794 1.06-.804-1.405-2.746.16-.138.282-.142.296-.162.352-.148.314-1.727-.966ZM52.176 17.292l-.016.461.029.933.015.436.02.451.005.78h-2.108l.01-.963v-.652l.01-.381.01-.623.005-.49.01-1.032-.01-1.402-.035-1.078h2.108l-.025 1.06-.015 1.066-.013.318v.525h.038l.108-.133.155-.203.135-.179.274-.345.299-.372.288-.353.247-.315.18-.23.206-.251.274-.336.244-.307 1.505 1.33-1.912 1.967.287.308.184.19.425.454.532.571.564.593-1.601 1.4-.372-.498-.446-.57-.278-.372-.199-.262-.164-.227-.228-.297-.707-.972h-.038ZM57.311 13.812l.37-.02.482-.015 1.03-.056.354-.02h.833l.824-.05.036 1.5-.622.011h-.247l-.317.01h-.743v1.232l.699-.051c.178 0 .324-.003.425-.007.103-.004.273-.013.507-.032l.018 1.453-1.649-.03v1.075c.124 0 .293.005.521.006.226.007.395.008.495.008l.227-.01.244-.007.308-.01.246-.006.054 1.556-4.095-.09.016-3.24-.016-3.207ZM69.154 14.542h.086l1.82 2.679 1.17-3.398 1.843.742-.31.669-.463.997-.47 1.005-.28.616-.256.544-.324.68c-.12.26-.24.497-.353.715-.108.218-.23.455-.364.713l-.1.005-1.999-2.791-.57.832-.539.742-.487.711-.49.72h-.094c-.118-.308-.24-.613-.368-.917a29.802 29.802 0 0 0-.3-.704l-.76-1.767-.614-1.452-.219-.524-.199-.49-.169-.435 1.925-.707.407 1.287c.105.338.176.58.212.719.044.138.099.308.172.508l.155.488.204.655c.37-.618.705-1.175 1.01-1.669.192-.317.432-.704.724-1.173ZM78.013 15.098c-.144 0-.275.021-.398.064-.114.04-.237.108-.364.199a1.758 1.758 0 0 0-.536.668 1.89 1.89 0 0 0-.166.447 2.27 2.27 0 0 0-.058.53c0 .64.135 1.137.403 1.485.267.351.596.527.992.527h.127c.374-.038.669-.153.888-.356.217-.197.372-.444.462-.728.04-.155.074-.31.099-.453.025-.147.035-.3.035-.466 0-.617-.122-1.094-.371-1.436-.25-.322-.59-.48-1.023-.48h-.09Zm0-1.41c.65 0 1.164.058 1.538.173.375.114.702.27.98.462a2.249 2.249 0 0 1 .66.688c.176.252.311.558.411.907.08.373.124.735.124 1.084 0 .226-.019.43-.06.614-.039.185-.105.39-.201.62-.171.405-.411.765-.724 1.082-.315.317-.699.57-1.152.756a5.122 5.122 0 0 1-.759.24 3.558 3.558 0 0 1-.817.085 4.793 4.793 0 0 1-1.538-.233 3.526 3.526 0 0 1-1.194-.675 3.036 3.036 0 0 1-.758-.982 2.889 2.889 0 0 1-.19-.567 2.526 2.526 0 0 1-.071-.602l.015-.338c.081-.698.308-1.3.677-1.8a3.564 3.564 0 0 1 1.39-1.133 3.98 3.98 0 0 1 1.669-.38ZM83.064 13.768l.088-.056.27.2.346.254.31.23.288.215.59.44.54.402.976.732 1.214.905v-.788l-.007-.625-.025-.916.017-.978 1.835.037-.041.572-.03.523-.028.47-.045.807-.045.788-.099 1.973-.08 1.451-.093.035-1.05-.76-1.042-.778-1.28-.978-1.14-.877V20.337l-1.807-.072.055-.997.038-.643v-.454l.026-.479.045-.78.083-1.467.036-.834.055-.843ZM93.15 15.225v3.395c.503-.088.98-.306 1.427-.643.453-.34.677-.814.677-1.425 0-.273-.057-.502-.173-.685a.93.93 0 0 0-.524-.395c-.472-.163-.899-.247-1.28-.247h-.127Zm-2.036-1.445h.372c.288 0 .772.014 1.455.043.276.013.507.02.712.02.301 0 .56.018.785.053.224.036.492.095.816.173.699.183 1.234.45 1.599.807.372.357.557.801.557 1.332l.007.145c0 .507-.119.957-.35 1.352-.275.446-.589.822-.945 1.124-.656.541-1.46.916-2.41 1.124-.12.02-.34.062-.662.116-.321.055-.574.094-.766.12-.19.021-.374.04-.551.053-.176.011-.37.017-.573.017h-.055l.055-3.1v-.87l-.01-1.17-.036-1.34ZM98.817 13.812l.372-.02.478-.015 1.034-.056.35-.02H101.887l.824-.05.036 1.5-.626.011h-.244l-.313.01h-.748v1.232l.7-.051c.181 0 .32-.003.428-.007.1-.004.269-.013.504-.032l.019 1.453-1.651-.03v1.075c.123 0 .295.005.52.006.231.007.393.008.497.008l.227-.01.247-.007.305-.01.243-.006.057 1.556-4.095-.09.016-3.24-.016-3.207ZM108.923 20.551l-2.213-3.29c.316-.16.567-.369.748-.622.184-.255.276-.497.276-.733a.741.741 0 0 0-.307-.607c-.202-.15-.522-.227-.962-.227l.052 5.187h-2.026v-2.297c0-.348-.005-1.042-.018-2.075-.01-1.035-.02-1.72-.02-2.059h.456c.233 0 .489.003.774.014.28.002.58.01.902.013.214 0 .413.008.596.023.182.017.48.062.902.136.42.076.79.198 1.11.378.32.172.514.402.589.686.035.144.055.301.055.47 0 .288-.091.58-.263.878-.1.149-.221.298-.368.442-.148.144-.332.291-.539.435l.227.255.208.214.191.192.206.199.199.207.208.209.673.721-1.656 1.251ZM111.381 14.876c.262-.266.653-.518 1.178-.76.526-.236 1.168-.392 1.93-.466l.253 1.523c-.215 0-.388.005-.507.013-.122.01-.246.024-.374.042a2.208 2.208 0 0 0-.57.154c-.164.084-.25.207-.25.363 0 .085.048.157.141.22.085.07.252.167.499.29l.182.09.158.092.134.07c.674.365 1.012.813 1.012 1.342l-.009.137-.009.135a1.76 1.76 0 0 1-.366.813 3.07 3.07 0 0 1-.801.695 4.84 4.84 0 0 1-1.169.516 5.528 5.528 0 0 1-.683.172 8.447 8.447 0 0 1-.749.11l-.254-1.537c.484 0 .911-.057 1.286-.169.368-.112.554-.27.554-.475 0-.086-.048-.168-.141-.242-.096-.074-.179-.139-.256-.186a2.875 2.875 0 0 0-.245-.145l-.519-.308c-.637-.4-.957-.85-.957-1.356 0-.203.054-.415.17-.633a1.82 1.82 0 0 1 .362-.5ZM116.098 18.901h1.521v1.356h-1.521v-1.356Zm-.207-5.148 2.193.091c0 .144-.02.319-.056.523-.034.198-.06.352-.082.456l-.046.29-.053.362-.109.66-.174 1.178-.084.744c-.262 0-.462.014-.596.018-.133.013-.336.037-.605.072l-.181-1.65-.123-1.541c-.016-.173-.037-.392-.053-.659a7.157 7.157 0 0 1-.031-.544Z"/>
    <path fill="#F9BE00" d="M117.167 74.642a4.98 4.98 0 0 1-4.981 4.976 4.979 4.979 0 0 1-4.983-4.976V52.724a4.98 4.98 0 0 1 4.983-4.976 4.981 4.981 0 0 1 4.981 4.976v21.918Zm10.607-22.178c-.484-2.124-1.404-3.933-2.767-5.426-1.062-1.17-2.544-2.12-4.426-2.858.08-.31.125-.63.125-.965a3.987 3.987 0 0 0-3.984-3.985 3.987 3.987 0 0 0-3.935 3.381 74.24 74.24 0 0 0-1.214-.083 3.98 3.98 0 0 0-3.918-3.298 3.991 3.991 0 0 0-3.909 3.19h-15.09v1.992a5.976 5.976 0 0 1 5.98 5.975v37.85c0 3.3-2.675 5.977-5.98 5.977v1.992h18.553V84.93h4.944c4.037 0 7.298-.558 9.792-1.674 2.501-1.108 4.213-2.708 5.148-4.786.937-2.084 1.408-5.392 1.408-9.939v-6.195c0-4.456-.247-7.75-.727-9.872Z"/>
    <path fill="#fff" d="M110.311 43.215a2.657 2.657 0 1 1-5.314-.002 2.657 2.657 0 0 1 5.314.002Z"/>
    <path fill="#231815" d="M108.981 43.215c0 .73-.593 1.324-1.326 1.324a1.325 1.325 0 1 1 0-2.65c.733 0 1.326.593 1.326 1.326Z"/>
    <path fill="#fff" d="M119.375 43.215a2.656 2.656 0 0 1-2.653 2.656 2.657 2.657 0 0 1 0-5.315 2.658 2.658 0 0 1 2.653 2.659Z"/>
    <path fill="#231815" d="M118.051 43.215a1.33 1.33 0 0 1-2.659 0 1.33 1.33 0 0 1 2.659 0ZM40.048 61.497V62.5c0-4.483-.248-7.784-.728-9.927-.49-2.135-1.412-3.955-2.78-5.455-1.067-1.17-2.555-2.128-4.448-2.869a4.006 4.006 0 0 0-3.884-4.976 3.999 3.999 0 0 0-3.953 3.397c-.398-.029-.803-.058-1.22-.08a4.003 4.003 0 0 0-7.866-.113H0v2.002a6.008 6.008 0 0 1 6.007 6.008v11.01c0 3.324-2.69 6.01-6.007 6.01v2h18.643V52.842a5.006 5.006 0 1 1 10.012 0v16.667H40.04c.004-.257.007-.515.007-.78v.78h6.007v-2a6.005 6.005 0 0 1-6.007-6.01Z"/>
    <path fill="#fff" d="M21.764 43.106a2.669 2.669 0 0 1-2.67 2.669 2.668 2.668 0 0 1-2.67-2.669 2.67 2.67 0 1 1 5.34 0Z"/>
    <path fill="#231815" d="M20.429 43.106a1.335 1.335 0 1 1-2.67-.003 1.335 1.335 0 0 1 2.67.003Z"/>
    <path fill="#fff" d="M30.88 43.106a2.67 2.67 0 0 1-2.672 2.669 2.669 2.669 0 1 1 0-5.339 2.67 2.67 0 0 1 2.672 2.67Z"/>
    <path fill="#231815" d="M29.545 43.106a1.337 1.337 0 1 1-1.336-1.339c.734 0 1.336.598 1.336 1.34ZM59.616 55.756c-.036-1.415-.379-2.474-1.03-3.187-.649-.71-1.662-1.07-3.033-1.07-1.279 0-2.332.34-3.15 1.01-.823.679-1.289 1.759-1.385 3.247h8.598Zm6.693 3.906H51.037c.1 1.67.719 2.948 1.86 3.835 1.14.887 2.819 1.325 5.043 1.325a11.05 11.05 0 0 0 4.088-.777c1.32-.513 2.361-1.07 3.126-1.66h.742v5.383c-1.5.602-2.916 1.046-4.25 1.32-1.326.27-2.797.41-4.412.41-4.16 0-7.353-.944-9.566-2.841-2.219-1.888-3.326-4.583-3.326-8.08 0-3.464 1.05-6.208 3.152-8.23 2.104-2.022 4.983-3.034 8.644-3.034 3.384 0 5.922.859 7.627 2.581 1.697 1.719 2.544 4.194 2.544 7.419v2.35ZM83.4 63.487c.428-.532.752-1.172.967-1.925.214-.747.324-1.781.324-3.11 0-1.226-.112-2.253-.334-3.085-.221-.828-.529-1.49-.92-1.984a3.29 3.29 0 0 0-1.422-1.084 5.045 5.045 0 0 0-1.791-.31c-.64 0-1.208.085-1.701.26-.5.17-.978.518-1.432 1.037-.408.486-.731 1.144-.968 1.99-.24.842-.359 1.9-.359 3.175 0 1.14.099 2.13.31 2.964.206.835.517 1.51.923 2.012.394.488.866.837 1.411 1.06.55.226 1.172.335 1.876.335.6 0 1.177-.1 1.721-.302a3.198 3.198 0 0 0 1.395-1.033Zm8.265-5.07c0 3.43-1.001 6.138-3.005 8.115-2.003 1.975-4.816 2.966-8.436 2.966s-6.435-.99-8.436-2.966c-2.007-1.977-3.003-4.685-3.003-8.115 0-3.465 1.01-6.175 3.018-8.147 2.02-1.974 4.826-2.958 8.421-2.958 3.652 0 6.467.989 8.456 2.975 1.992 1.987 2.985 4.696 2.985 8.13Z"/>
    <path fill="#F9BE00" d="M138.27 69.487h-6.698V39.265h6.698v30.222ZM156.175 55.756c-.036-1.415-.386-2.474-1.032-3.187-.651-.71-1.664-1.07-3.04-1.07-1.278 0-2.327.34-3.151 1.01-.821.679-1.281 1.759-1.381 3.247h8.604Zm6.696 3.906h-15.28c.098 1.67.717 2.948 1.861 3.835 1.14.887 2.82 1.325 5.04 1.325 1.407 0 2.772-.257 4.085-.777 1.327-.513 2.368-1.07 3.136-1.66h.738v5.383c-1.503.602-2.919 1.046-4.25 1.32-1.328.27-2.802.41-4.414.41-4.162 0-7.354-.944-9.568-2.841-2.216-1.888-3.326-4.583-3.326-8.08 0-3.464 1.055-6.208 3.154-8.23 2.105-2.022 4.989-3.034 8.652-3.034 3.373 0 5.914.859 7.618 2.581 1.698 1.719 2.554 4.194 2.554 7.419v2.35Z"/>
    <path fill="#474747" d="M193.81 56.321c0-2.324-.745-4.305-2.236-5.944-1.492-1.64-3.324-2.46-5.498-2.46-2.175 0-4.007.82-5.498 2.46-1.49 1.639-2.237 3.62-2.237 5.944s.747 4.3 2.237 5.925c1.491 1.63 3.323 2.443 5.498 2.443 2.174 0 4.006-.813 5.498-2.442 1.491-1.626 2.236-3.602 2.236-5.926Zm1.976 9.58c-2.634 2.57-5.877 3.858-9.729 3.858-3.852 0-7.095-1.287-9.728-3.858-2.635-2.573-3.952-5.772-3.952-9.598 0-3.827 1.317-7.026 3.952-9.598 2.633-2.572 5.876-3.858 9.728-3.858 3.852 0 7.095 1.286 9.729 3.858 2.634 2.572 3.951 5.77 3.951 9.598 0 3.826-1.317 7.025-3.951 9.598ZM208.123 59.49c0 1.627.453 2.957 1.36 3.987.908 1.033 2.008 1.548 3.298 1.548 1.292 0 2.424-.515 3.394-1.548.968-1.03 1.453-2.352 1.453-3.968s-.472-2.97-1.417-4.063c-.944-1.095-2.075-1.64-3.391-1.64-1.319 0-2.429.539-3.337 1.62-.907 1.081-1.36 2.436-1.36 4.064Zm6.15-10.381c2.335 0 4.418.976 6.243 2.926 1.827 1.95 2.74 4.404 2.74 7.362 0 2.957-.913 5.429-2.74 7.417-1.825 1.988-3.963 2.983-6.411 2.983-2.448 0-4.417-.983-5.908-2.946v9.878h-5.59V49.446h5.59v2.236c1.715-1.716 3.74-2.573 6.076-2.573ZM238.687 54.7c-.771-.646-1.709-.97-2.815-.97-1.105 0-2.118.336-3.037 1.007-.92.67-1.453 1.578-1.603 2.721h8.796c-.124-1.192-.572-2.112-1.341-2.759Zm5.367 11.89c-2.26 2.137-4.914 3.207-7.958 3.207-3.044 0-5.56-.939-7.548-2.815-1.988-1.876-2.982-4.393-2.982-7.55 0-3.154 1.013-5.663 3.038-7.527 2.026-1.863 4.416-2.796 7.175-2.796 2.759 0 5.101.833 7.027 2.497 1.925 1.665 2.888 3.95 2.888 6.859v2.981h-14.611c.173 1.095.745 1.988 1.715 2.684a5.482 5.482 0 0 0 3.28 1.044c1.962 0 3.578-.659 4.845-1.976l3.131 3.392ZM253.821 58.315v11.183h-5.591V49.445h5.591v2.237c1.689-1.716 3.591-2.573 5.703-2.573s3.882.746 5.312 2.236c1.428 1.492 2.142 3.48 2.142 5.964v12.19h-5.59V58.166c0-3.08-1.132-4.622-3.392-4.622-1.119 0-2.095.404-2.926 1.21-.833.808-1.249 1.994-1.249 3.56ZM283.304 51.196l-3.28 7.567h6.523l-3.243-7.567Zm7.864 18.302-2.421-5.63h-10.922l-2.424 5.63h-6.186l11.256-26.055h5.629l11.256 26.055h-6.188ZM313.309 56.023c.696-.783 1.044-1.926 1.044-3.429 0-1.504-.455-2.572-1.361-3.206-.907-.633-2.318-.95-4.23-.95h-3.317v8.76h3.913c1.939 0 3.255-.392 3.951-1.175Zm4.268-10.25c1.827 1.553 2.74 3.939 2.74 7.156 0 3.219-.939 5.572-2.815 7.064-1.876 1.49-4.74 2.236-8.59 2.236h-3.467v7.268h-5.816V43.443h9.207c4.001 0 6.914.778 8.741 2.33ZM323.372 43.443h5.815v26.054h-5.815V43.443Z"/>
  </g>
  <defs>
    <clipPath id="a">
      <path fill="#fff" d="M0 0h329v104H0z"/>
    </clipPath>
  </defs>
</svg>